<svg width="68" height="68" viewBox="0 0 68 68" fill="none" xmlns="http://www.w3.org/2000/svg">
<path d="M63.2188 7.42676H4.78125C3.79531 7.42783 2.85007 7.81457 2.1529 8.50213C1.45574 9.18969 1.06359 10.1219 1.0625 11.0943V47.7692C1.06359 48.7416 1.45574 49.6738 2.1529 50.3613C2.85007 51.0489 3.79531 51.4356 4.78125 51.4367H26.0552L24.7802 54.5803H19.125C18.8432 54.5803 18.573 54.6907 18.3737 54.8872C18.1744 55.0837 18.0625 55.3502 18.0625 55.6281V57.7239H11.6875C11.4057 57.7239 11.1355 57.8342 10.9362 58.0308C10.7369 58.2273 10.625 58.4938 10.625 58.7717C10.625 59.0496 10.7369 59.3161 10.9362 59.5127C11.1355 59.7092 11.4057 59.8196 11.6875 59.8196H56.3125C56.5943 59.8196 56.8645 59.7092 57.0638 59.5127C57.2631 59.3161 57.375 59.0496 57.375 58.7717C57.375 58.4938 57.2631 58.2273 57.0638 58.0308C56.8645 57.8342 56.5943 57.7239 56.3125 57.7239H49.9375V55.6281C49.9375 55.3502 49.8256 55.0837 49.6263 54.8872C49.427 54.6907 49.1568 54.5803 48.875 54.5803H43.2198L41.9448 51.4367H63.2188C64.2047 51.4356 65.1499 51.0489 65.8471 50.3613C66.5443 49.6738 66.9364 48.7416 66.9375 47.7692V11.0943C66.9364 10.1219 66.5443 9.18969 65.8471 8.50213C65.1499 7.81457 64.2047 7.42783 63.2188 7.42676V7.42676ZM47.8125 56.676V57.7239H20.1875V56.676H47.8125ZM27.0698 54.5803L28.3448 51.4367H39.6552L40.9302 54.5803H27.0698ZM64.8125 47.7692C64.8121 48.186 64.6441 48.5856 64.3453 48.8803C64.0465 49.1749 63.6413 49.3407 63.2188 49.341H4.78125C4.35867 49.3407 3.9535 49.1749 3.65469 48.8803C3.35588 48.5856 3.18785 48.186 3.1875 47.7692V45.1496H64.8125V47.7692ZM64.8125 43.0539H3.1875V11.0943C3.18785 10.6775 3.35588 10.2779 3.65469 9.98322C3.9535 9.68853 4.35867 9.52282 4.78125 9.52247H63.2188C63.6413 9.52282 64.0465 9.68853 64.3453 9.98322C64.6441 10.2779 64.8121 10.6775 64.8125 11.0943V43.0539Z" fill="#FFB400"/>
<path d="M29.1671 34.4994C29.2838 34.5749 29.4144 34.627 29.5514 34.6527C29.6885 34.6784 29.8294 34.6773 29.966 34.6493C30.1026 34.6213 30.2323 34.5671 30.3477 34.4897C30.4631 34.4123 30.5618 34.3132 30.6384 34.1981L39.0056 21.6239C39.1602 21.3915 39.2149 21.1081 39.1577 20.836C39.1005 20.5639 38.936 20.3253 38.7004 20.1728C38.4648 20.0203 38.1774 19.9664 37.9015 20.0228C37.6256 20.0793 37.3837 20.2415 37.2291 20.4738L28.8619 33.0481C28.7853 33.1632 28.7324 33.292 28.7063 33.4272C28.6802 33.5624 28.6813 33.7013 28.7096 33.8361C28.738 33.9709 28.793 34.0988 28.8715 34.2126C28.9499 34.3264 29.0504 34.4239 29.1671 34.4994Z" fill="#FFB400"/>
<path d="M40.7573 34.4283C40.9738 34.6062 41.2531 34.692 41.5337 34.6668C41.8143 34.6416 42.0733 34.5075 42.2537 34.294L47.5662 28.0069C47.7253 27.8186 47.8124 27.5812 47.8124 27.3361C47.8124 27.091 47.7253 26.8537 47.5662 26.6654L42.2537 20.3782C42.1647 20.2716 42.0551 20.1834 41.9314 20.1187C41.8077 20.054 41.6723 20.0141 41.5328 20.0012C41.3934 19.9883 41.2528 20.0027 41.119 20.0436C40.9853 20.0844 40.861 20.151 40.7534 20.2394C40.6459 20.3278 40.5571 20.4363 40.4921 20.5587C40.4272 20.6811 40.3875 20.8149 40.3752 20.9525C40.3629 21.09 40.3783 21.2286 40.4205 21.3603C40.4627 21.492 40.5309 21.6141 40.6212 21.7197L45.3668 27.3361L40.6212 32.9525C40.4408 33.166 40.3538 33.4414 40.3793 33.7182C40.4049 33.995 40.5408 34.2504 40.7573 34.4283V34.4283Z" fill="#FFB400"/>
<path d="M25.7462 34.294C25.8352 34.4006 25.9448 34.4888 26.0685 34.5535C26.1922 34.6182 26.3276 34.6582 26.4671 34.6711C26.6065 34.684 26.7471 34.6696 26.8809 34.6287C27.0146 34.5878 27.1389 34.5212 27.2465 34.4328C27.354 34.3444 27.4428 34.2359 27.5078 34.1136C27.5727 33.9912 27.6124 33.8574 27.6247 33.7198C27.637 33.5822 27.6216 33.4436 27.5794 33.3119C27.5372 33.1803 27.469 33.0581 27.3787 32.9525L22.6331 27.3361L27.3787 21.7197C27.469 21.6141 27.5372 21.492 27.5794 21.3603C27.6216 21.2286 27.637 21.09 27.6247 20.9525C27.6124 20.8149 27.5727 20.6811 27.5078 20.5587C27.4428 20.4363 27.354 20.3278 27.2465 20.2394C27.1389 20.151 27.0146 20.0844 26.8809 20.0436C26.7471 20.0027 26.6065 19.9883 26.4671 20.0012C26.3276 20.0141 26.1922 20.054 26.0685 20.1187C25.9448 20.1834 25.8352 20.2716 25.7462 20.3782L20.4337 26.6654C20.2746 26.8537 20.1875 27.091 20.1875 27.3361C20.1875 27.5812 20.2746 27.8186 20.4337 28.0069L25.7462 34.294Z" fill="#FFB400"/>
</svg>
