<svg width="76" height="76" viewBox="0 0 76 76" fill="none" xmlns="http://www.w3.org/2000/svg">
<g clip-path="url(#clip0_2_621)">
<path d="M35.3281 54.585C34.7131 54.585 34.2148 55.0765 34.2148 55.6829C34.2148 56.2893 34.7131 56.7808 35.3281 56.7808H40.6719C41.2869 56.7808 41.7852 56.2893 41.7852 55.6829C41.7852 55.0765 41.2869 54.585 40.6719 54.585H35.3281Z" fill="#FFB400"/>
<path d="M13.3594 37.5369H20.7183C21.1678 38.6906 22.3002 39.5132 23.6264 39.5132C24.9525 39.5132 26.0849 38.6906 26.5344 37.5369H28.0053C28.6202 37.5369 29.1185 37.0453 29.1185 36.439C29.1185 35.8326 28.6202 35.341 28.0053 35.341H26.5344C26.0849 34.1873 24.9525 33.3647 23.6264 33.3647C22.3002 33.3647 21.1678 34.1873 20.7183 35.341H13.3594C12.7444 35.341 12.2461 35.8326 12.2461 36.439C12.2461 37.0453 12.7444 37.5369 13.3594 37.5369ZM23.6264 35.5606C24.1175 35.5606 24.517 35.9546 24.517 36.439C24.517 36.9234 24.1175 37.3173 23.6264 37.3173C23.1352 37.3173 22.7357 36.9234 22.7357 36.439C22.7357 35.9546 23.1352 35.5606 23.6264 35.5606Z" fill="#FFB400"/>
<path d="M13.3594 31.242H14.7808C15.2303 32.3957 16.3627 33.2183 17.6889 33.2183C19.015 33.2183 20.1474 32.3957 20.5969 31.242H28.0053C28.6202 31.242 29.1185 30.7504 29.1185 30.144C29.1185 29.5377 28.6202 29.0461 28.0053 29.0461H20.5969C20.1474 27.8924 19.015 27.0698 17.6889 27.0698C16.3627 27.0698 15.2303 27.8924 14.7808 29.0461H13.3594C12.7444 29.0461 12.2461 29.5377 12.2461 30.144C12.2461 30.7504 12.7444 31.242 13.3594 31.242ZM17.6889 29.2657C18.18 29.2657 18.5795 29.6596 18.5795 30.144C18.5795 30.6285 18.18 31.0224 17.6889 31.0224C17.1977 31.0224 16.7982 30.6285 16.7982 30.144C16.7982 29.6596 17.1977 29.2657 17.6889 29.2657Z" fill="#FFB400"/>
<path d="M28.228 21.1412C28.8429 21.1412 29.3413 20.6496 29.3413 20.0432C29.3413 19.4369 28.8429 18.9453 28.228 18.9453C27.6132 18.9453 27.1147 19.4369 27.1147 20.0432C27.1147 20.6496 27.6132 21.1412 28.228 21.1412Z" fill="#FFB400"/>
<path d="M25.1602 21.1412C25.775 21.1412 26.2734 20.6496 26.2734 20.0432C26.2734 19.4369 25.775 18.9453 25.1602 18.9453C24.5453 18.9453 24.0469 19.4369 24.0469 20.0432C24.0469 20.6496 24.5453 21.1412 25.1602 21.1412Z" fill="#FFB400"/>
<path d="M22.0923 21.1412C22.7071 21.1412 23.2056 20.6496 23.2056 20.0432C23.2056 19.4369 22.7071 18.9453 22.0923 18.9453C21.4774 18.9453 20.979 19.4369 20.979 20.0432C20.979 20.6496 21.4774 21.1412 22.0923 21.1412Z" fill="#FFB400"/>
<path d="M72.6602 7.59234H72.2432L72.5542 7.28565C73.4856 6.36705 73.4856 4.87224 72.5542 3.95363L70.1171 1.55017C69.1857 0.631713 67.6701 0.631713 66.7385 1.55017L60.6124 7.5922H3.33984C1.49833 7.5922 0 9.06973 0 10.886V56.4817C0 58.7016 1.83113 60.5075 4.08203 60.5075H30.4512V68.2743H25.0859C23.6537 68.2743 22.4883 69.4236 22.4883 70.8362V71.9332C22.4883 73.3458 23.6537 74.4951 25.0859 74.4951H50.9141C52.3463 74.4951 53.5117 73.3458 53.5117 71.9332V70.8362C53.5117 69.4236 52.3463 68.2743 50.9141 68.2743H45.5488V60.5075H57.4453C58.0603 60.5075 58.5586 60.0159 58.5586 59.4096C58.5586 58.8032 58.0603 58.3116 57.4453 58.3116H4.08203C3.05885 58.3116 2.22656 57.4908 2.22656 56.4817V53.2318H73.7734V56.4817C73.7734 57.4908 72.9411 58.3116 71.918 58.3116H62.6406C62.0256 58.3116 61.5273 58.8032 61.5273 59.4096C61.5273 60.0159 62.0256 60.5075 62.6406 60.5075H71.918C74.1689 60.5075 76 58.7016 76 56.4817V10.8862C76 9.07002 74.5017 7.59234 72.6602 7.59234V7.59234ZM50.9141 70.4703C51.1188 70.4703 51.2852 70.6346 51.2852 70.8363V71.9334C51.2852 72.1351 51.1188 72.2994 50.9141 72.2994H25.0859C24.8812 72.2994 24.7148 72.1351 24.7148 71.9334V70.8363C24.7148 70.6346 24.8812 70.4703 25.0859 70.4703H50.9141ZM32.6778 60.5078H43.3224V68.2746H32.6778V60.5078ZM68.313 3.1031C68.3765 3.04059 68.4796 3.04073 68.5428 3.1031L70.9797 5.50641C71.0431 5.56892 71.0431 5.67066 70.9797 5.73302L68.6544 8.02625L65.9877 5.39632L68.313 3.1031ZM64.4133 6.9491L67.0798 9.57903L66.3033 10.3448L63.6368 7.71487L64.4133 6.9491ZM62.0623 9.26765L64.729 11.8976L51.555 24.89L48.8883 22.2601L62.0623 9.26765ZM60.4141 19.3056C61.9283 19.3056 63.1602 20.5205 63.1602 22.0138C63.1602 23.5072 61.9283 24.7221 60.4141 24.7221C58.8999 24.7221 57.668 23.5072 57.668 22.0138C57.668 21.9964 57.6703 21.9796 57.6706 21.9622L60.3621 19.3082C60.3795 19.3079 60.3965 19.3056 60.4141 19.3056ZM49.6218 26.0889L46.3269 27.4161L47.6726 24.1667L49.6218 26.0889ZM73.7734 51.0363H2.22656V10.8862C2.22656 10.2808 2.72591 9.78822 3.33984 9.78822H58.386L56.6884 11.4624H18.8516C18.2366 11.4624 17.7383 11.9539 17.7383 12.5603C17.7383 13.1666 18.2366 13.6582 18.8516 13.6582H54.462L46.6095 21.4029C46.3876 21.6237 46.2141 21.8813 46.0946 22.1697L43.6078 28.1741C43.3797 28.7256 43.5082 29.3541 43.9353 29.7751C44.2219 30.0578 44.6031 30.2077 44.9919 30.2077C45.1824 30.2077 45.3747 30.1716 45.5586 30.0977L51.6468 27.6454C51.9309 27.5309 52.185 27.3652 52.4047 27.1551L55.7914 23.8155C56.521 25.6306 58.3171 26.9181 60.4142 26.9181C63.1561 26.9181 65.3869 24.7181 65.3869 22.014C65.3869 19.946 64.0817 18.1749 62.2415 17.4552L66.0918 13.6584H69.8493V47.1664H69.2593L65.2248 40.2747C64.9175 39.7495 64.2362 39.5696 63.704 39.8729C63.1716 40.1761 62.9892 40.8475 63.2966 41.3727L66.6884 47.1664H51.1366L49.4686 44.3172L57.2445 31.0346L60.6988 36.9354C61.0063 37.4605 61.6872 37.6405 62.2195 37.3372C62.752 37.034 62.9344 36.3626 62.627 35.8374L58.9417 29.5425C58.5874 28.9373 57.953 28.576 57.2443 28.576C56.5357 28.576 55.9011 28.9373 55.5468 29.5425L48.1828 42.1215L38.7342 25.9816C38.3799 25.3764 37.7454 25.0151 37.0366 25.0151C36.3281 25.0151 35.6936 25.3764 35.3393 25.9816L32.829 30.2696V18.5007C32.829 17.0882 31.6636 15.9389 30.2314 15.9389H11.1328C9.70054 15.9389 8.53516 17.0882 8.53516 18.5007V42.5089C8.53516 43.518 9.36745 44.3388 10.3906 44.3388H24.593L22.9376 47.1665H6.1508V13.6582H13.6562C14.2712 13.6582 14.7695 13.1666 14.7695 12.5603C14.7695 11.9539 14.2712 11.4624 13.6562 11.4624H5.77971C4.75653 11.4624 3.92424 12.2832 3.92424 13.2922V47.5322C3.92424 48.5413 4.75653 49.3621 5.77971 49.3621H70.2204C71.2436 49.3621 72.0759 48.5413 72.0759 47.5322V13.2922C72.0759 12.2832 71.2436 11.4624 70.2204 11.4624H68.3187L70.0165 9.78822H72.6602C73.2741 9.78822 73.7734 10.2808 73.7734 10.8862V51.0363ZM30.6029 24.5812V42.1427H10.7617V24.5812H30.6029ZM10.7617 22.3854V18.5004C10.7617 18.2987 10.9281 18.1344 11.1328 18.1344H30.2318C30.4365 18.1344 30.6029 18.2987 30.6029 18.5004V22.3854H10.7617ZM27.1641 44.3386H30.974C31.9972 44.3386 32.8295 43.5177 32.8295 42.5087V40.1829C33.1079 40.3147 33.418 40.386 33.7428 40.386C34.5028 40.386 35.1832 39.9983 35.5631 39.3494L37.4578 36.1131C37.5151 36.0153 37.6026 35.9947 37.6657 35.9947C37.7291 35.9947 37.8167 36.0153 37.8738 36.1131L39.0419 38.1083C39.4219 38.7575 40.1025 39.145 40.8626 39.145C41.6226 39.145 42.3032 38.7575 42.6831 38.1084L42.9731 37.613L48.5656 47.1661H25.5087L27.1641 44.3386ZM32.8295 36.5076V34.661L37.0372 27.4737L41.6875 35.4172L40.8625 36.8263L39.802 35.015C39.3561 34.2533 38.5575 33.7986 37.6656 33.7986C36.7738 33.7986 35.9752 34.2533 35.5293 35.015L33.7424 38.0673L32.8295 36.5076Z" fill="#FFB400"/>
</g>
<defs>
<clipPath id="clip0_2_621">
<rect width="76" height="74.9525" fill="white" transform="translate(0 0.202148)"/>
</clipPath>
</defs>
</svg>
