<svg width="310" height="223" viewBox="0 0 310 223" fill="none" xmlns="http://www.w3.org/2000/svg">
<rect y="0.478027" width="310" height="221.899" fill="white"/>
<g clip-path="url(#clip0_2_625)">
<path d="M155 25.1333C147.018 25.1333 140.522 31.7935 140.522 39.9784V61.6233C140.522 69.8098 147.018 76.4684 155 76.4684C162.983 76.4684 169.478 69.8098 169.478 61.6233V39.9784C169.478 31.7935 162.983 25.1333 155 25.1333ZM155 73.2954C149.312 73.2954 144.606 68.896 143.855 63.2099H166.144C165.394 68.8976 160.689 73.2954 155 73.2954ZM166.261 60.0368H143.739V39.9784C143.739 33.5419 148.791 28.3063 155 28.3063C161.21 28.3063 166.261 33.5419 166.261 39.9784V60.0368Z" fill="#FFB400"/>
<path d="M177.522 53.6909C176.634 53.6909 175.913 54.4017 175.913 55.2774V61.6235C175.913 72.9957 166.531 82.2483 155 82.2483C143.469 82.2483 134.087 72.9957 134.087 61.6235V55.2774C134.087 54.4017 133.366 53.6909 132.478 53.6909C131.59 53.6909 130.87 54.4017 130.87 55.2774V61.6235C130.87 74.2094 140.835 84.5187 153.391 85.3405V94.9405H145.348C144.46 94.9405 143.739 95.6513 143.739 96.5271C143.739 97.4028 144.46 98.1136 145.348 98.1136H164.652C165.54 98.1136 166.261 97.4028 166.261 96.5271C166.261 95.6513 165.54 94.9405 164.652 94.9405H156.609V85.3405C169.165 84.5187 179.13 74.2094 179.13 61.6235V55.2774C179.13 54.4017 178.41 53.6909 177.522 53.6909Z" fill="#FFB400"/>
</g>
<path d="M103.578 129.144C103.51 128.539 103.229 128.071 102.734 127.738C102.24 127.402 101.618 127.233 100.868 127.233C100.331 127.233 99.8665 127.318 99.4744 127.489C99.0824 127.655 98.7777 127.885 98.5604 128.179C98.3473 128.469 98.2408 128.799 98.2408 129.17C98.2408 129.481 98.3132 129.75 98.4581 129.975C98.6072 130.201 98.8011 130.391 99.0398 130.544C99.2827 130.693 99.5426 130.819 99.8196 130.921C100.097 131.019 100.363 131.1 100.619 131.164L101.897 131.497C102.315 131.599 102.743 131.737 103.182 131.912C103.621 132.087 104.028 132.317 104.403 132.602C104.778 132.888 105.08 133.242 105.31 133.664C105.545 134.085 105.662 134.59 105.662 135.178C105.662 135.92 105.47 136.578 105.087 137.154C104.707 137.729 104.156 138.183 103.431 138.515C102.711 138.848 101.839 139.014 100.817 139.014C99.8366 139.014 98.9886 138.858 98.2727 138.547C97.5568 138.236 96.9964 137.795 96.5916 137.224C96.1868 136.649 95.9631 135.967 95.9205 135.178H97.902C97.9403 135.652 98.0938 136.046 98.3622 136.361C98.6349 136.672 98.9822 136.904 99.4041 137.058C99.8303 137.207 100.297 137.281 100.804 137.281C101.362 137.281 101.859 137.194 102.293 137.019C102.732 136.84 103.077 136.593 103.329 136.278C103.58 135.958 103.706 135.585 103.706 135.159C103.706 134.772 103.595 134.454 103.374 134.207C103.156 133.96 102.86 133.755 102.485 133.593C102.114 133.431 101.695 133.289 101.226 133.165L99.679 132.743C98.6307 132.458 97.7997 132.038 97.1861 131.484C96.5767 130.93 96.272 130.197 96.272 129.285C96.272 128.531 96.4766 127.872 96.8857 127.31C97.2947 126.747 97.8487 126.311 98.5476 126C99.2464 125.684 100.035 125.526 100.913 125.526C101.799 125.526 102.581 125.682 103.259 125.993C103.94 126.304 104.477 126.732 104.869 127.278C105.261 127.819 105.466 128.441 105.483 129.144H103.578ZM112.004 138.995C111.084 138.995 110.281 138.784 109.595 138.362C108.909 137.94 108.376 137.35 107.997 136.591C107.617 135.833 107.428 134.946 107.428 133.932C107.428 132.914 107.617 132.023 107.997 131.26C108.376 130.497 108.909 129.905 109.595 129.483C110.281 129.061 111.084 128.85 112.004 128.85C112.925 128.85 113.728 129.061 114.414 129.483C115.1 129.905 115.633 130.497 116.012 131.26C116.392 132.023 116.581 132.914 116.581 133.932C116.581 134.946 116.392 135.833 116.012 136.591C115.633 137.35 115.1 137.94 114.414 138.362C113.728 138.784 112.925 138.995 112.004 138.995ZM112.011 137.39C112.607 137.39 113.102 137.232 113.494 136.917C113.886 136.602 114.176 136.182 114.363 135.658C114.555 135.134 114.651 134.556 114.651 133.926C114.651 133.299 114.555 132.724 114.363 132.2C114.176 131.671 113.886 131.247 113.494 130.928C113.102 130.608 112.607 130.448 112.011 130.448C111.41 130.448 110.911 130.608 110.515 130.928C110.123 131.247 109.831 131.671 109.639 132.2C109.452 132.724 109.358 133.299 109.358 133.926C109.358 134.556 109.452 135.134 109.639 135.658C109.831 136.182 110.123 136.602 110.515 136.917C110.911 137.232 111.41 137.39 112.011 137.39ZM124.934 134.725V128.978H126.852V138.796H124.972V137.096H124.87C124.644 137.62 124.282 138.057 123.783 138.406C123.289 138.752 122.673 138.924 121.936 138.924C121.305 138.924 120.747 138.786 120.261 138.509C119.78 138.227 119.401 137.812 119.124 137.262C118.851 136.713 118.714 136.033 118.714 135.223V128.978H120.626V134.993C120.626 135.662 120.811 136.195 121.182 136.591C121.553 136.987 122.034 137.186 122.626 137.186C122.984 137.186 123.34 137.096 123.694 136.917C124.052 136.738 124.348 136.468 124.582 136.105C124.821 135.743 124.938 135.283 124.934 134.725ZM131.331 132.967V138.796H129.42V128.978H131.254V130.576H131.376C131.601 130.056 131.955 129.639 132.437 129.323C132.922 129.008 133.534 128.85 134.271 128.85C134.94 128.85 135.526 128.991 136.029 129.272C136.532 129.549 136.922 129.963 137.199 130.512C137.476 131.062 137.614 131.742 137.614 132.551V138.796H135.703V132.781C135.703 132.07 135.518 131.514 135.147 131.113C134.776 130.708 134.267 130.506 133.619 130.506C133.176 130.506 132.782 130.602 132.437 130.794C132.096 130.985 131.825 131.267 131.625 131.637C131.429 132.004 131.331 132.447 131.331 132.967ZM143.853 138.988C143.06 138.988 142.353 138.786 141.731 138.381C141.113 137.972 140.627 137.39 140.273 136.636C139.924 135.877 139.749 134.968 139.749 133.906C139.749 132.845 139.926 131.938 140.28 131.183C140.638 130.429 141.128 129.852 141.75 129.451C142.372 129.051 143.077 128.85 143.866 128.85C144.475 128.85 144.965 128.953 145.336 129.157C145.711 129.357 146.001 129.592 146.205 129.86C146.414 130.129 146.576 130.365 146.691 130.57H146.806V125.705H148.717V138.796H146.851V137.269H146.691C146.576 137.477 146.41 137.716 146.192 137.985C145.979 138.253 145.685 138.487 145.31 138.688C144.935 138.888 144.449 138.988 143.853 138.988ZM144.275 137.358C144.824 137.358 145.289 137.213 145.668 136.924C146.052 136.629 146.341 136.223 146.537 135.703C146.738 135.183 146.838 134.578 146.838 133.887C146.838 133.205 146.74 132.609 146.544 132.098C146.348 131.586 146.06 131.188 145.681 130.902C145.302 130.617 144.833 130.474 144.275 130.474C143.699 130.474 143.22 130.623 142.836 130.921C142.453 131.22 142.163 131.627 141.967 132.142C141.775 132.658 141.68 133.24 141.68 133.887C141.68 134.544 141.778 135.134 141.974 135.658C142.17 136.182 142.459 136.598 142.843 136.904C143.231 137.207 143.708 137.358 144.275 137.358ZM160.6 138.796H156.362V125.705H160.734C162.017 125.705 163.118 125.968 164.039 126.492C164.959 127.012 165.665 127.759 166.155 128.735C166.649 129.707 166.896 130.872 166.896 132.232C166.896 133.595 166.647 134.767 166.148 135.747C165.654 136.727 164.938 137.482 164.001 138.01C163.063 138.534 161.93 138.796 160.6 138.796ZM158.337 137.071H160.491C161.488 137.071 162.317 136.883 162.978 136.508C163.638 136.129 164.133 135.581 164.461 134.865C164.789 134.145 164.953 133.267 164.953 132.232C164.953 131.205 164.789 130.333 164.461 129.617C164.137 128.901 163.653 128.358 163.01 127.987C162.366 127.617 161.567 127.431 160.613 127.431H158.337V137.071ZM173.43 138.995C172.463 138.995 171.63 138.788 170.931 138.375C170.237 137.957 169.7 137.371 169.32 136.617C168.945 135.858 168.758 134.97 168.758 133.951C168.758 132.946 168.945 132.059 169.32 131.292C169.7 130.525 170.228 129.926 170.906 129.496C171.587 129.066 172.384 128.85 173.296 128.85C173.85 128.85 174.387 128.942 174.907 129.125C175.427 129.308 175.893 129.596 176.307 129.988C176.72 130.38 177.046 130.889 177.285 131.516C177.523 132.138 177.643 132.894 177.643 133.785V134.463H169.838V133.031H175.77C175.77 132.528 175.668 132.083 175.463 131.695C175.259 131.303 174.971 130.994 174.6 130.768C174.234 130.542 173.803 130.429 173.309 130.429C172.772 130.429 172.303 130.561 171.903 130.826C171.506 131.085 171.2 131.426 170.982 131.848C170.769 132.266 170.663 132.72 170.663 133.21V134.328C170.663 134.985 170.778 135.543 171.008 136.003C171.242 136.463 171.568 136.815 171.986 137.058C172.403 137.296 172.891 137.416 173.45 137.416C173.812 137.416 174.142 137.365 174.44 137.262C174.739 137.156 174.996 136.998 175.214 136.789C175.431 136.58 175.597 136.323 175.712 136.016L177.521 136.342C177.376 136.875 177.116 137.341 176.741 137.742C176.371 138.138 175.904 138.447 175.342 138.669C174.783 138.886 174.146 138.995 173.43 138.995ZM187.121 131.375L185.388 131.682C185.316 131.46 185.201 131.25 185.043 131.049C184.89 130.849 184.681 130.685 184.417 130.557C184.153 130.429 183.822 130.365 183.426 130.365C182.885 130.365 182.433 130.487 182.071 130.73C181.709 130.968 181.528 131.277 181.528 131.656C181.528 131.985 181.649 132.249 181.892 132.449C182.135 132.649 182.527 132.813 183.068 132.941L184.628 133.299C185.531 133.508 186.204 133.83 186.648 134.264C187.091 134.699 187.312 135.264 187.312 135.958C187.312 136.546 187.142 137.071 186.801 137.531C186.464 137.987 185.993 138.345 185.388 138.605C184.787 138.865 184.091 138.995 183.298 138.995C182.199 138.995 181.302 138.76 180.607 138.291C179.912 137.818 179.486 137.147 179.329 136.278L181.176 135.997C181.291 136.478 181.528 136.843 181.885 137.09C182.243 137.333 182.71 137.454 183.285 137.454C183.912 137.454 184.412 137.324 184.787 137.064C185.162 136.8 185.35 136.478 185.35 136.099C185.35 135.792 185.235 135.534 185.005 135.326C184.779 135.117 184.432 134.959 183.963 134.852L182.301 134.488C181.385 134.279 180.707 133.947 180.268 133.491C179.834 133.035 179.616 132.458 179.616 131.759C179.616 131.179 179.778 130.672 180.102 130.237C180.426 129.803 180.873 129.464 181.444 129.221C182.015 128.974 182.67 128.85 183.407 128.85C184.468 128.85 185.303 129.08 185.912 129.541C186.522 129.997 186.925 130.608 187.121 131.375ZM189.414 138.796V128.978H191.325V138.796H189.414ZM190.379 127.463C190.047 127.463 189.761 127.352 189.522 127.131C189.288 126.905 189.171 126.637 189.171 126.326C189.171 126.01 189.288 125.742 189.522 125.52C189.761 125.294 190.047 125.181 190.379 125.181C190.711 125.181 190.995 125.294 191.229 125.52C191.468 125.742 191.587 126.01 191.587 126.326C191.587 126.637 191.468 126.905 191.229 127.131C190.995 127.352 190.711 127.463 190.379 127.463ZM198.013 142.683C197.233 142.683 196.562 142.58 195.999 142.376C195.441 142.171 194.985 141.901 194.631 141.564C194.278 141.227 194.013 140.859 193.839 140.458L195.481 139.781C195.596 139.968 195.75 140.166 195.942 140.375C196.138 140.588 196.402 140.769 196.734 140.919C197.071 141.068 197.503 141.142 198.032 141.142C198.756 141.142 199.355 140.965 199.828 140.612C200.301 140.262 200.537 139.704 200.537 138.937V137.007H200.416C200.301 137.215 200.135 137.448 199.917 137.703C199.704 137.959 199.41 138.181 199.035 138.368C198.66 138.556 198.172 138.649 197.572 138.649C196.796 138.649 196.097 138.468 195.475 138.106C194.857 137.74 194.367 137.201 194.005 136.489C193.647 135.773 193.468 134.893 193.468 133.849C193.468 132.805 193.645 131.91 193.998 131.164C194.356 130.419 194.846 129.848 195.469 129.451C196.091 129.051 196.796 128.85 197.584 128.85C198.194 128.85 198.686 128.953 199.061 129.157C199.436 129.357 199.728 129.592 199.937 129.86C200.15 130.129 200.314 130.365 200.429 130.57H200.569V128.978H202.442V139.014C202.442 139.857 202.246 140.55 201.854 141.091C201.462 141.632 200.932 142.033 200.263 142.293C199.598 142.553 198.848 142.683 198.013 142.683ZM197.993 137.064C198.543 137.064 199.008 136.936 199.387 136.681C199.77 136.421 200.06 136.05 200.256 135.568C200.456 135.083 200.557 134.501 200.557 133.823C200.557 133.163 200.459 132.581 200.263 132.078C200.067 131.576 199.779 131.183 199.4 130.902C199.02 130.617 198.552 130.474 197.993 130.474C197.418 130.474 196.939 130.623 196.555 130.921C196.172 131.215 195.882 131.616 195.686 132.123C195.494 132.63 195.398 133.197 195.398 133.823C195.398 134.467 195.496 135.031 195.692 135.517C195.888 136.003 196.178 136.382 196.562 136.655C196.949 136.928 197.427 137.064 197.993 137.064ZM206.917 132.967V138.796H205.006V128.978H206.84V130.576H206.961C207.187 130.056 207.541 129.639 208.023 129.323C208.508 129.008 209.12 128.85 209.857 128.85C210.526 128.85 211.112 128.991 211.615 129.272C212.118 129.549 212.508 129.963 212.785 130.512C213.062 131.062 213.2 131.742 213.2 132.551V138.796H211.289V132.781C211.289 132.07 211.104 131.514 210.733 131.113C210.362 130.708 209.853 130.506 209.205 130.506C208.762 130.506 208.368 130.602 208.023 130.794C207.682 130.985 207.411 131.267 207.211 131.637C207.015 132.004 206.917 132.447 206.917 132.967Z" fill="#2B2B2B"/>
<path d="M69.0077 163.377L72.2464 172.56H72.3742L75.6128 163.377H76.9978L72.9921 174.286H71.6285L67.6228 163.377H69.0077ZM81.8504 174.457C81.1118 174.457 80.4637 174.281 79.9062 173.929C79.3522 173.578 78.9189 173.086 78.6064 172.454C78.2975 171.822 78.143 171.083 78.143 170.238C78.143 169.386 78.2975 168.642 78.6064 168.006C78.9189 167.37 79.3522 166.877 79.9062 166.525C80.4637 166.174 81.1118 165.998 81.8504 165.998C82.589 165.998 83.2354 166.174 83.7893 166.525C84.3469 166.877 84.7801 167.37 85.089 168.006C85.4015 168.642 85.5578 169.386 85.5578 170.238C85.5578 171.083 85.4015 171.822 85.089 172.454C84.7801 173.086 84.3469 173.578 83.7893 173.929C83.2354 174.281 82.589 174.457 81.8504 174.457ZM81.8504 173.327C82.4115 173.327 82.8731 173.184 83.2354 172.896C83.5976 172.608 83.8657 172.23 84.0397 171.761C84.2137 171.293 84.3007 170.785 84.3007 170.238C84.3007 169.691 84.2137 169.181 84.0397 168.709C83.8657 168.237 83.5976 167.855 83.2354 167.564C82.8731 167.273 82.4115 167.127 81.8504 167.127C81.2893 167.127 80.8277 167.273 80.4655 167.564C80.1032 167.855 79.8351 168.237 79.6611 168.709C79.4871 169.181 79.4001 169.691 79.4001 170.238C79.4001 170.785 79.4871 171.293 79.6611 171.761C79.8351 172.23 80.1032 172.608 80.4655 172.896C80.8277 173.184 81.2893 173.327 81.8504 173.327ZM87.4767 174.286V166.104H88.7338V174.286H87.4767ZM88.1159 164.741C87.8709 164.741 87.6596 164.657 87.4821 164.49C87.3081 164.323 87.2211 164.123 87.2211 163.888C87.2211 163.654 87.3081 163.453 87.4821 163.286C87.6596 163.12 87.8709 163.036 88.1159 163.036C88.361 163.036 88.5705 163.12 88.7445 163.286C88.9221 163.453 89.0108 163.654 89.0108 163.888C89.0108 164.123 88.9221 164.323 88.7445 164.49C88.5705 164.657 88.361 164.741 88.1159 164.741ZM94.3602 174.457C93.5931 174.457 92.9326 174.275 92.3786 173.913C91.8247 173.551 91.3985 173.052 91.1002 172.416C90.8019 171.781 90.6528 171.055 90.6528 170.238C90.6528 169.407 90.8055 168.674 91.1109 168.038C91.4198 167.399 91.8495 166.9 92.3999 166.541C92.9539 166.179 93.6002 165.998 94.3389 165.998C94.9142 165.998 95.4326 166.104 95.8943 166.317C96.3559 166.53 96.7341 166.829 97.0289 167.212C97.3236 167.596 97.5065 168.043 97.5775 168.555H96.3204C96.2245 168.182 96.0115 167.851 95.6812 167.564C95.3545 167.273 94.9142 167.127 94.3602 167.127C93.8701 167.127 93.4404 167.255 93.0711 167.511C92.7053 167.763 92.4195 168.12 92.2135 168.581C92.0111 169.039 91.9099 169.577 91.9099 170.195C91.9099 170.827 92.0093 171.378 92.2082 171.847C92.4106 172.315 92.6947 172.679 93.0605 172.938C93.4298 173.198 93.863 173.327 94.3602 173.327C94.6869 173.327 94.9834 173.271 95.2497 173.157C95.5161 173.043 95.7416 172.88 95.9262 172.667C96.1109 172.454 96.2423 172.198 96.3204 171.9H97.5775C97.5065 172.383 97.3307 172.818 97.0502 173.205C96.7732 173.588 96.4056 173.894 95.9475 174.121C95.493 174.345 94.9639 174.457 94.3602 174.457ZM102.846 174.457C102.057 174.457 101.377 174.283 100.805 173.935C100.237 173.583 99.7987 173.093 99.4898 172.464C99.1844 171.832 99.0317 171.097 99.0317 170.259C99.0317 169.421 99.1844 168.682 99.4898 168.043C99.7987 167.4 100.228 166.9 100.779 166.541C101.333 166.179 101.979 165.998 102.718 165.998C103.144 165.998 103.565 166.069 103.98 166.211C104.396 166.353 104.774 166.584 105.115 166.903C105.456 167.219 105.727 167.638 105.93 168.16C106.132 168.682 106.233 169.325 106.233 170.089V170.621H99.9266V169.535H104.955C104.955 169.073 104.863 168.661 104.678 168.299C104.497 167.937 104.238 167.651 103.9 167.441C103.566 167.232 103.172 167.127 102.718 167.127C102.217 167.127 101.784 167.251 101.418 167.5C101.056 167.745 100.777 168.065 100.582 168.459C100.386 168.853 100.289 169.275 100.289 169.726V170.451C100.289 171.069 100.395 171.593 100.608 172.022C100.825 172.448 101.125 172.773 101.509 172.997C101.892 173.217 102.338 173.327 102.846 173.327C103.176 173.327 103.474 173.281 103.741 173.189C104.01 173.093 104.243 172.951 104.438 172.763C104.634 172.571 104.785 172.333 104.891 172.049L106.106 172.39C105.978 172.802 105.763 173.164 105.461 173.476C105.159 173.785 104.786 174.027 104.342 174.201C103.899 174.371 103.4 174.457 102.846 174.457ZM121.739 168.832C121.739 169.982 121.532 170.976 121.116 171.815C120.701 172.653 120.131 173.299 119.406 173.753C118.682 174.208 117.854 174.435 116.924 174.435C115.994 174.435 115.166 174.208 114.442 173.753C113.717 173.299 113.147 172.653 112.732 171.815C112.316 170.976 112.109 169.982 112.109 168.832C112.109 167.681 112.316 166.687 112.732 165.849C113.147 165.011 113.717 164.364 114.442 163.91C115.166 163.455 115.994 163.228 116.924 163.228C117.854 163.228 118.682 163.455 119.406 163.91C120.131 164.364 120.701 165.011 121.116 165.849C121.532 166.687 121.739 167.681 121.739 168.832ZM120.461 168.832C120.461 167.887 120.303 167.09 119.987 166.44C119.674 165.79 119.25 165.298 118.714 164.964C118.181 164.631 117.585 164.464 116.924 164.464C116.264 164.464 115.665 164.631 115.129 164.964C114.596 165.298 114.172 165.79 113.856 166.44C113.543 167.09 113.387 167.887 113.387 168.832C113.387 169.776 113.543 170.573 113.856 171.223C114.172 171.873 114.596 172.365 115.129 172.699C115.665 173.033 116.264 173.199 116.924 173.199C117.585 173.199 118.181 173.033 118.714 172.699C119.25 172.365 119.674 171.873 119.987 171.223C120.303 170.573 120.461 169.776 120.461 168.832ZM130.481 166.104L127.455 174.286H126.177L123.151 166.104H124.515L126.773 172.624H126.858L129.117 166.104H130.481ZM135.57 174.457C134.782 174.457 134.102 174.283 133.53 173.935C132.962 173.583 132.523 173.093 132.214 172.464C131.909 171.832 131.756 171.097 131.756 170.259C131.756 169.421 131.909 168.682 132.214 168.043C132.523 167.4 132.953 166.9 133.503 166.541C134.057 166.179 134.704 165.998 135.442 165.998C135.869 165.998 136.289 166.069 136.705 166.211C137.12 166.353 137.498 166.584 137.839 166.903C138.18 167.219 138.452 167.638 138.654 168.16C138.857 168.682 138.958 169.325 138.958 170.089V170.621H132.651V169.535H137.68C137.68 169.073 137.587 168.661 137.403 168.299C137.222 167.937 136.962 167.651 136.625 167.441C136.291 167.232 135.897 167.127 135.442 167.127C134.942 167.127 134.508 167.251 134.143 167.5C133.78 167.745 133.502 168.065 133.306 168.459C133.111 168.853 133.013 169.275 133.013 169.726V170.451C133.013 171.069 133.12 171.593 133.333 172.022C133.55 172.448 133.85 172.773 134.233 172.997C134.617 173.217 135.062 173.327 135.57 173.327C135.9 173.327 136.199 173.281 136.465 173.189C136.735 173.093 136.968 172.951 137.163 172.763C137.358 172.571 137.509 172.333 137.616 172.049L138.83 172.39C138.702 172.802 138.487 173.164 138.186 173.476C137.884 173.785 137.511 174.027 137.067 174.201C136.623 174.371 136.124 174.457 135.57 174.457ZM140.87 174.286V166.104H142.085V167.34H142.17C142.319 166.935 142.589 166.607 142.98 166.355C143.37 166.103 143.811 165.976 144.301 165.976C144.393 165.976 144.508 165.978 144.647 165.982C144.785 165.985 144.89 165.991 144.961 165.998V167.276C144.919 167.266 144.821 167.25 144.668 167.228C144.519 167.203 144.361 167.191 144.194 167.191C143.796 167.191 143.441 167.274 143.129 167.441C142.82 167.605 142.575 167.832 142.394 168.123C142.216 168.411 142.127 168.739 142.127 169.109V174.286H140.87ZM148.326 172.795L148.241 173.37C148.181 173.775 148.088 174.208 147.964 174.67C147.843 175.131 147.717 175.566 147.586 175.975C147.455 176.383 147.346 176.708 147.261 176.949H146.302C146.348 176.722 146.409 176.422 146.483 176.049C146.558 175.676 146.632 175.259 146.707 174.797C146.785 174.339 146.849 173.871 146.899 173.391L146.963 172.795H148.326ZM155.045 174.286V163.377H158.859C159.619 163.377 160.245 163.508 160.739 163.771C161.233 164.03 161.6 164.38 161.842 164.821C162.083 165.257 162.204 165.742 162.204 166.275C162.204 166.744 162.12 167.131 161.953 167.436C161.79 167.741 161.573 167.983 161.304 168.16C161.037 168.338 160.748 168.469 160.435 168.555V168.661C160.769 168.682 161.105 168.8 161.442 169.013C161.779 169.226 162.062 169.531 162.289 169.929C162.516 170.327 162.63 170.813 162.63 171.388C162.63 171.935 162.506 172.427 162.257 172.864C162.008 173.301 161.616 173.647 161.08 173.903C160.544 174.158 159.846 174.286 158.986 174.286H155.045ZM156.366 173.114H158.986C159.849 173.114 160.462 172.947 160.824 172.614C161.19 172.276 161.373 171.868 161.373 171.388C161.373 171.019 161.279 170.678 161.09 170.366C160.902 170.05 160.634 169.797 160.286 169.609C159.938 169.418 159.526 169.322 159.05 169.322H156.366V173.114ZM156.366 168.171H158.816C159.214 168.171 159.572 168.093 159.892 167.937C160.215 167.78 160.471 167.56 160.659 167.276C160.851 166.992 160.947 166.658 160.947 166.275C160.947 165.795 160.78 165.389 160.446 165.055C160.112 164.718 159.583 164.549 158.859 164.549H156.366V168.171ZM168.06 174.457C167.272 174.457 166.592 174.283 166.02 173.935C165.452 173.583 165.014 173.093 164.705 172.464C164.399 171.832 164.247 171.097 164.247 170.259C164.247 169.421 164.399 168.682 164.705 168.043C165.014 167.4 165.443 166.9 165.994 166.541C166.548 166.179 167.194 165.998 167.933 165.998C168.359 165.998 168.78 166.069 169.195 166.211C169.611 166.353 169.989 166.584 170.33 166.903C170.671 167.219 170.942 167.638 171.145 168.16C171.347 168.682 171.448 169.325 171.448 170.089V170.621H165.141V169.535H170.17C170.17 169.073 170.078 168.661 169.893 168.299C169.712 167.937 169.453 167.651 169.115 167.441C168.781 167.232 168.387 167.127 167.933 167.127C167.432 167.127 166.999 167.251 166.633 167.5C166.271 167.745 165.992 168.065 165.797 168.459C165.601 168.853 165.504 169.275 165.504 169.726V170.451C165.504 171.069 165.61 171.593 165.823 172.022C166.04 172.448 166.34 172.773 166.723 172.997C167.107 173.217 167.553 173.327 168.06 173.327C168.391 173.327 168.689 173.281 168.955 173.189C169.225 173.093 169.458 172.951 169.653 172.763C169.848 172.571 169.999 172.333 170.106 172.049L171.32 172.39C171.193 172.802 170.978 173.164 170.676 173.476C170.374 173.785 170.001 174.027 169.557 174.201C169.113 174.371 168.614 174.457 168.06 174.457ZM175.768 174.478C175.25 174.478 174.779 174.38 174.357 174.185C173.934 173.986 173.598 173.7 173.35 173.327C173.101 172.951 172.977 172.496 172.977 171.964C172.977 171.495 173.069 171.115 173.254 170.824C173.439 170.529 173.685 170.298 173.994 170.131C174.303 169.964 174.644 169.84 175.017 169.758C175.394 169.673 175.772 169.606 176.152 169.556C176.649 169.492 177.052 169.444 177.361 169.412C177.673 169.377 177.901 169.318 178.043 169.236C178.188 169.155 178.261 169.013 178.261 168.81V168.768C178.261 168.242 178.117 167.834 177.83 167.543C177.546 167.251 177.114 167.106 176.535 167.106C175.935 167.106 175.465 167.237 175.124 167.5C174.783 167.763 174.543 168.043 174.405 168.342L173.211 167.915C173.424 167.418 173.709 167.031 174.064 166.754C174.422 166.474 174.813 166.278 175.236 166.168C175.662 166.055 176.081 165.998 176.493 165.998C176.755 165.998 177.057 166.03 177.398 166.094C177.743 166.154 178.075 166.28 178.394 166.472C178.717 166.664 178.986 166.953 179.199 167.34C179.412 167.727 179.518 168.246 179.518 168.896V174.286H178.261V173.178H178.197C178.112 173.356 177.97 173.546 177.771 173.748C177.572 173.951 177.308 174.123 176.977 174.265C176.647 174.407 176.244 174.478 175.768 174.478ZM175.96 173.349C176.457 173.349 176.876 173.251 177.217 173.056C177.562 172.86 177.821 172.608 177.995 172.299C178.172 171.99 178.261 171.665 178.261 171.324V170.174C178.208 170.238 178.091 170.296 177.91 170.35C177.732 170.399 177.526 170.444 177.292 170.483C177.061 170.518 176.835 170.55 176.615 170.579C176.399 170.604 176.223 170.625 176.088 170.643C175.761 170.685 175.456 170.755 175.172 170.85C174.891 170.943 174.664 171.083 174.49 171.271C174.319 171.456 174.234 171.708 174.234 172.028C174.234 172.464 174.396 172.795 174.719 173.018C175.046 173.239 175.459 173.349 175.96 173.349ZM185.371 166.104V167.17H181.131V166.104H185.371ZM182.367 164.144H183.624V171.942C183.624 172.297 183.675 172.564 183.778 172.741C183.885 172.915 184.02 173.033 184.183 173.093C184.35 173.15 184.526 173.178 184.71 173.178C184.849 173.178 184.963 173.171 185.051 173.157C185.14 173.139 185.211 173.125 185.264 173.114L185.52 174.244C185.435 174.275 185.316 174.307 185.163 174.339C185.01 174.375 184.817 174.393 184.583 174.393C184.227 174.393 183.879 174.316 183.539 174.164C183.201 174.011 182.921 173.778 182.697 173.466C182.477 173.153 182.367 172.759 182.367 172.283V164.144ZM191.651 163.377H193.228L196.935 172.432H197.063L200.77 163.377H202.347V174.286H201.111V165.998H201.005L197.596 174.286H196.403L192.993 165.998H192.887V174.286H191.651V163.377ZM207.233 174.478C206.715 174.478 206.244 174.38 205.821 174.185C205.399 173.986 205.063 173.7 204.815 173.327C204.566 172.951 204.442 172.496 204.442 171.964C204.442 171.495 204.534 171.115 204.719 170.824C204.903 170.529 205.15 170.298 205.459 170.131C205.768 169.964 206.109 169.84 206.482 169.758C206.858 169.673 207.237 169.606 207.617 169.556C208.114 169.492 208.517 169.444 208.826 169.412C209.138 169.377 209.366 169.318 209.508 169.236C209.653 169.155 209.726 169.013 209.726 168.81V168.768C209.726 168.242 209.582 167.834 209.294 167.543C209.01 167.251 208.579 167.106 208 167.106C207.4 167.106 206.929 167.237 206.589 167.5C206.248 167.763 206.008 168.043 205.869 168.342L204.676 167.915C204.889 167.418 205.173 167.031 205.528 166.754C205.887 166.474 206.278 166.278 206.7 166.168C207.127 166.055 207.546 165.998 207.957 165.998C208.22 165.998 208.522 166.03 208.863 166.094C209.207 166.154 209.54 166.28 209.859 166.472C210.182 166.664 210.45 166.953 210.663 167.34C210.877 167.727 210.983 168.246 210.983 168.896V174.286H209.726V173.178H209.662C209.577 173.356 209.435 173.546 209.236 173.748C209.037 173.951 208.772 174.123 208.442 174.265C208.112 174.407 207.709 174.478 207.233 174.478ZM207.425 173.349C207.922 173.349 208.341 173.251 208.682 173.056C209.026 172.86 209.286 172.608 209.46 172.299C209.637 171.99 209.726 171.665 209.726 171.324V170.174C209.673 170.238 209.555 170.296 209.374 170.35C209.197 170.399 208.991 170.444 208.756 170.483C208.526 170.518 208.3 170.55 208.08 170.579C207.863 170.604 207.688 170.625 207.553 170.643C207.226 170.685 206.921 170.755 206.636 170.85C206.356 170.943 206.129 171.083 205.955 171.271C205.784 171.456 205.699 171.708 205.699 172.028C205.699 172.464 205.861 172.795 206.184 173.018C206.51 173.239 206.924 173.349 207.425 173.349ZM214.449 171.303L214.428 169.748H214.684L218.263 166.104H219.819L216.005 169.961H215.898L214.449 171.303ZM213.278 174.286V163.377H214.535V174.286H213.278ZM218.476 174.286L215.28 170.238L216.175 169.364L220.074 174.286H218.476ZM221.437 174.286V166.104H222.694V174.286H221.437ZM222.076 164.741C221.831 164.741 221.62 164.657 221.442 164.49C221.268 164.323 221.181 164.123 221.181 163.888C221.181 163.654 221.268 163.453 221.442 163.286C221.62 163.12 221.831 163.036 222.076 163.036C222.321 163.036 222.53 163.12 222.704 163.286C222.882 163.453 222.971 163.654 222.971 163.888C222.971 164.123 222.882 164.323 222.704 164.49C222.53 164.657 222.321 164.741 222.076 164.741ZM226.253 169.364V174.286H224.996V166.104H226.211V167.383H226.317C226.509 166.967 226.8 166.633 227.191 166.381C227.581 166.126 228.086 165.998 228.704 165.998C229.258 165.998 229.742 166.111 230.158 166.339C230.573 166.562 230.896 166.903 231.127 167.361C231.358 167.816 231.474 168.391 231.474 169.087V174.286H230.216V169.172C230.216 168.53 230.05 168.029 229.716 167.67C229.382 167.308 228.924 167.127 228.341 167.127C227.94 167.127 227.581 167.214 227.265 167.388C226.953 167.562 226.706 167.816 226.525 168.15C226.344 168.484 226.253 168.888 226.253 169.364ZM237.073 177.525C236.466 177.525 235.944 177.447 235.507 177.29C235.07 177.138 234.706 176.935 234.415 176.683C234.128 176.435 233.899 176.168 233.728 175.884L234.729 175.181C234.843 175.33 234.987 175.501 235.161 175.692C235.335 175.888 235.573 176.056 235.875 176.198C236.18 176.344 236.58 176.417 237.073 176.417C237.734 176.417 238.279 176.257 238.709 175.937C239.138 175.618 239.353 175.117 239.353 174.435V172.773H239.247C239.154 172.922 239.023 173.107 238.852 173.327C238.685 173.544 238.444 173.737 238.128 173.908C237.815 174.075 237.393 174.158 236.86 174.158C236.2 174.158 235.607 174.002 235.081 173.69C234.559 173.377 234.145 172.922 233.84 172.326C233.538 171.729 233.387 171.005 233.387 170.153C233.387 169.315 233.535 168.585 233.829 167.963C234.124 167.338 234.534 166.855 235.06 166.514C235.585 166.17 236.193 165.998 236.881 165.998C237.414 165.998 237.837 166.087 238.149 166.264C238.465 166.438 238.707 166.637 238.874 166.861C239.044 167.081 239.176 167.262 239.268 167.404H239.396V166.104H240.61V174.521C240.61 175.224 240.45 175.795 240.131 176.236C239.815 176.68 239.389 177.005 238.852 177.21C238.32 177.42 237.727 177.525 237.073 177.525ZM237.031 173.029C237.535 173.029 237.961 172.914 238.309 172.683C238.657 172.452 238.922 172.12 239.103 171.687C239.284 171.253 239.374 170.735 239.374 170.131C239.374 169.542 239.286 169.022 239.108 168.571C238.93 168.12 238.668 167.766 238.32 167.511C237.972 167.255 237.542 167.127 237.031 167.127C236.498 167.127 236.054 167.262 235.699 167.532C235.347 167.802 235.083 168.164 234.905 168.619C234.731 169.073 234.644 169.577 234.644 170.131C234.644 170.699 234.733 171.202 234.911 171.639C235.092 172.072 235.358 172.413 235.71 172.661C236.065 172.907 236.505 173.029 237.031 173.029Z" fill="#767676"/>
<defs>
<clipPath id="clip0_2_625">
<rect width="74" height="72.9801" fill="white" transform="translate(118 25.1333)"/>
</clipPath>
</defs>
</svg>
