<svg width="310" height="222" viewBox="0 0 310 222" fill="none" xmlns="http://www.w3.org/2000/svg">
<rect y="0.101074" width="310" height="221.899" fill="white"/>
<path d="M150.375 70.2769H159.625V72.5575H150.375V70.2769Z" fill="#FFB400"/>
<path d="M153.844 66.856H156.156V75.9785H153.844V66.856Z" fill="#FFB400"/>
<path d="M183.906 70.2769H186.219V72.5575H183.906V70.2769Z" fill="#FFB400"/>
<path d="M174.656 70.2769H176.969V72.5575H174.656V70.2769Z" fill="#FFB400"/>
<path d="M179.281 65.7158H181.594V67.9964H179.281V65.7158Z" fill="#FFB400"/>
<path d="M179.281 74.8379H181.594V77.1185H179.281V74.8379Z" fill="#FFB400"/>
<path d="M128.66 52.7445L123.457 46.3303L128.66 39.916L130.465 41.3414L126.418 46.3303L130.465 51.3192L128.66 52.7445Z" fill="#FFB400"/>
<path d="M146.653 52.7445L144.847 51.3192L148.895 46.3303L144.847 41.3414L146.653 39.916L151.855 46.3303L146.653 52.7445Z" fill="#FFB400"/>
<path d="M132.738 50.1393L140.834 41.019L142.574 42.5207L134.478 51.6416L132.738 50.1393Z" fill="#FFB400"/>
<path d="M127.25 82.8205H122.625V78.2593H124.938V80.5399H127.25V82.8205Z" fill="#FFB400"/>
<path d="M188.531 34.9272H121.469C119.553 34.9272 118 36.459 118 38.3482V83.9607C118 85.8499 119.553 87.3817 121.469 87.3817H145.75V93.0833C145.75 94.9725 144.197 96.5042 142.281 96.5042H136.5V103.346H173.5V96.5042H167.719C165.803 96.5042 164.25 94.9725 164.25 93.0833V87.3817H188.531C190.447 87.3817 192 85.8499 192 83.9607V38.3482C192 36.459 190.447 34.9272 188.531 34.9272ZM171.188 98.7848V101.065H138.812V98.7848H171.188ZM155 94.2715C156.916 94.2715 158.469 92.7397 158.469 90.8505V87.3817H161.938V93.0833C161.942 94.321 162.359 95.5231 163.124 96.5042H146.876C147.641 95.5231 148.058 94.321 148.062 93.0833V87.3817H151.531V90.8505C151.531 92.7397 153.084 94.2715 155 94.2715ZM153.844 90.8505V87.3817H156.156V90.8505C156.156 91.4802 155.639 91.9908 155 91.9908C154.361 91.9908 153.844 91.4802 153.844 90.8505ZM189.688 83.9607C189.688 84.5905 189.17 85.1011 188.531 85.1011H121.469C120.83 85.1011 120.312 84.5905 120.312 83.9607V73.6979H143.669C144.626 78.3399 148.396 81.9134 153.137 82.6734C157.878 83.434 162.601 81.2224 165 77.1189H170.435C172.373 80.4413 175.877 82.5777 179.757 82.8015C183.637 83.0253 187.37 81.3065 189.688 78.2297V83.9607ZM180.438 80.5398C176.923 80.5482 173.711 78.5804 172.161 75.4702L171.841 74.8382H163.597L163.277 75.4702C161.249 79.5025 156.542 81.4741 152.192 80.1127C147.841 78.7508 145.148 74.4641 145.849 70.0158C146.55 65.5682 150.436 62.2898 155 62.2948H180.438C185.546 62.2948 189.688 66.3789 189.688 71.4173C189.688 76.4557 185.546 80.5398 180.438 80.5398V80.5398ZM189.688 64.6049C187.513 61.7196 184.083 60.0175 180.438 60.0142H155C148.617 60.0208 143.444 65.1222 143.438 71.4173H120.312V38.3482C120.312 37.7185 120.83 37.2079 121.469 37.2079H188.531C189.17 37.2079 189.688 37.7185 189.688 38.3482V64.6049Z" fill="#FFB400"/>
<path d="M165.406 70.2769H170.031V72.5575H165.406V70.2769Z" fill="#FFB400"/>
<path d="M152.688 41.769H161.938V44.0497H152.688V41.769Z" fill="#FFB400"/>
<path d="M166.562 41.769H185.062V44.0497H166.562V41.769Z" fill="#FFB400"/>
<path d="M168.875 46.3301H185.062V48.6107H168.875V46.3301Z" fill="#FFB400"/>
<path d="M155 46.3301H164.25V48.6107H155V46.3301Z" fill="#FFB400"/>
<path d="M152.688 50.8916H175.812V53.1722H152.688V50.8916Z" fill="#FFB400"/>
<path d="M180.438 50.8916H185.062V53.1722H180.438V50.8916Z" fill="#FFB400"/>
<path d="M124.938 55.4526H136.5V57.7333H124.938V55.4526Z" fill="#FFB400"/>
<path d="M141.125 55.4526H163.094V57.7333H141.125V55.4526Z" fill="#FFB400"/>
<path d="M166.562 55.4526H185.062V57.7333H166.562V55.4526Z" fill="#FFB400"/>
<path d="M124.938 60.0142H143.438V62.2948H124.938V60.0142Z" fill="#FFB400"/>
<path d="M124.938 64.5752H134.188V66.8558H124.938V64.5752Z" fill="#FFB400"/>
<path d="M136.5 64.5752H141.125V66.8558H136.5V64.5752Z" fill="#FFB400"/>
<path d="M107.298 135.382C107.174 134.994 107.008 134.647 106.799 134.34C106.594 134.029 106.349 133.764 106.064 133.547C105.778 133.326 105.452 133.157 105.086 133.042C104.724 132.927 104.325 132.87 103.891 132.87C103.153 132.87 102.489 133.059 101.896 133.438C101.304 133.818 100.835 134.374 100.49 135.107C100.149 135.835 99.9787 136.728 99.9787 137.785C99.9787 138.846 100.151 139.743 100.496 140.476C100.842 141.209 101.315 141.765 101.915 142.144C102.516 142.524 103.2 142.713 103.967 142.713C104.679 142.713 105.299 142.568 105.827 142.279C106.36 141.989 106.771 141.58 107.061 141.051C107.355 140.519 107.502 139.892 107.502 139.172L108.013 139.268H104.268V137.638H109.413V139.127C109.413 140.227 109.179 141.181 108.71 141.991C108.246 142.796 107.602 143.419 106.78 143.858C105.962 144.296 105.024 144.516 103.967 144.516C102.783 144.516 101.743 144.243 100.848 143.698C99.9574 143.152 99.2628 142.379 98.7642 141.377C98.2656 140.372 98.0163 139.179 98.0163 137.798C98.0163 136.754 98.1612 135.816 98.451 134.985C98.7408 134.154 99.1477 133.449 99.6719 132.87C100.2 132.286 100.82 131.84 101.532 131.534C102.248 131.223 103.03 131.067 103.878 131.067C104.585 131.067 105.244 131.171 105.853 131.38C106.467 131.589 107.012 131.885 107.489 132.269C107.971 132.652 108.369 133.108 108.685 133.637C109 134.161 109.213 134.742 109.324 135.382H107.298ZM114.624 144.554C114.002 144.554 113.44 144.439 112.937 144.209C112.434 143.975 112.036 143.636 111.742 143.193C111.452 142.75 111.307 142.206 111.307 141.563C111.307 141.009 111.414 140.553 111.627 140.195C111.84 139.837 112.127 139.554 112.49 139.345C112.852 139.136 113.257 138.978 113.704 138.872C114.151 138.765 114.607 138.684 115.072 138.629C115.66 138.561 116.137 138.505 116.504 138.463C116.87 138.416 117.137 138.341 117.303 138.239C117.469 138.137 117.552 137.97 117.552 137.74V137.696C117.552 137.137 117.394 136.705 117.079 136.398C116.768 136.091 116.303 135.938 115.686 135.938C115.042 135.938 114.535 136.081 114.164 136.366C113.798 136.647 113.544 136.96 113.404 137.306L111.607 136.897C111.82 136.3 112.132 135.818 112.541 135.452C112.954 135.081 113.429 134.813 113.966 134.647C114.503 134.476 115.068 134.391 115.66 134.391C116.052 134.391 116.468 134.438 116.906 134.532C117.35 134.621 117.763 134.787 118.146 135.03C118.534 135.273 118.852 135.62 119.099 136.072C119.346 136.519 119.47 137.101 119.47 137.817V144.337H117.603V142.995H117.526C117.403 143.242 117.218 143.485 116.97 143.723C116.723 143.962 116.406 144.16 116.018 144.318C115.63 144.475 115.166 144.554 114.624 144.554ZM115.04 143.02C115.568 143.02 116.02 142.916 116.395 142.707C116.774 142.498 117.062 142.225 117.258 141.889C117.458 141.548 117.558 141.184 117.558 140.796V139.53C117.49 139.598 117.358 139.662 117.162 139.722C116.97 139.777 116.751 139.826 116.504 139.869C116.257 139.907 116.016 139.943 115.781 139.978C115.547 140.007 115.351 140.033 115.193 140.054C114.823 140.101 114.484 140.18 114.177 140.291C113.874 140.402 113.632 140.561 113.448 140.77C113.269 140.975 113.18 141.247 113.18 141.588C113.18 142.061 113.355 142.419 113.704 142.662C114.053 142.901 114.499 143.02 115.04 143.02ZM122.015 144.337V134.519H123.85V136.117H123.971C124.176 135.576 124.51 135.154 124.975 134.851C125.439 134.544 125.995 134.391 126.643 134.391C127.299 134.391 127.849 134.544 128.292 134.851C128.74 135.158 129.07 135.58 129.283 136.117H129.385C129.62 135.593 129.993 135.175 130.504 134.864C131.015 134.549 131.625 134.391 132.332 134.391C133.223 134.391 133.949 134.67 134.512 135.228C135.078 135.786 135.362 136.628 135.362 137.753V144.337H133.451V137.932C133.451 137.267 133.27 136.786 132.907 136.487C132.545 136.189 132.113 136.04 131.61 136.04C130.988 136.04 130.504 136.232 130.159 136.615C129.814 136.995 129.641 137.483 129.641 138.079V144.337H127.736V137.811C127.736 137.278 127.57 136.85 127.238 136.526C126.905 136.202 126.473 136.04 125.94 136.04C125.578 136.04 125.243 136.136 124.936 136.328C124.634 136.515 124.389 136.777 124.201 137.114C124.018 137.451 123.926 137.84 123.926 138.284V144.337H122.015ZM142.155 144.535C141.188 144.535 140.355 144.328 139.656 143.915C138.961 143.497 138.424 142.911 138.045 142.157C137.67 141.399 137.482 140.51 137.482 139.492C137.482 138.486 137.67 137.6 138.045 136.833C138.424 136.066 138.953 135.467 139.63 135.036C140.312 134.606 141.109 134.391 142.021 134.391C142.575 134.391 143.112 134.483 143.632 134.666C144.151 134.849 144.618 135.137 145.031 135.529C145.445 135.921 145.771 136.43 146.009 137.056C146.248 137.679 146.367 138.435 146.367 139.326V140.003H138.563V138.571H144.494C144.494 138.068 144.392 137.623 144.188 137.235C143.983 136.843 143.695 136.534 143.325 136.309C142.958 136.083 142.528 135.97 142.034 135.97C141.497 135.97 141.028 136.102 140.627 136.366C140.231 136.626 139.924 136.967 139.707 137.389C139.494 137.806 139.387 138.26 139.387 138.75V139.869C139.387 140.525 139.502 141.083 139.732 141.544C139.967 142.004 140.293 142.355 140.71 142.598C141.128 142.837 141.616 142.956 142.174 142.956C142.536 142.956 142.867 142.905 143.165 142.803C143.463 142.696 143.721 142.539 143.938 142.33C144.156 142.121 144.322 141.863 144.437 141.556L146.246 141.882C146.101 142.415 145.841 142.882 145.466 143.282C145.095 143.679 144.629 143.987 144.066 144.209C143.508 144.426 142.871 144.535 142.155 144.535ZM157.643 144.337H153.405V131.246H157.777C159.06 131.246 160.161 131.508 161.082 132.032C162.002 132.552 162.708 133.3 163.198 134.276C163.692 135.247 163.939 136.413 163.939 137.772C163.939 139.136 163.69 140.308 163.191 141.288C162.697 142.268 161.981 143.022 161.044 143.551C160.106 144.075 158.972 144.337 157.643 144.337ZM155.38 142.611H157.534C158.531 142.611 159.36 142.424 160.021 142.049C160.681 141.669 161.176 141.122 161.504 140.406C161.832 139.686 161.996 138.808 161.996 137.772C161.996 136.745 161.832 135.874 161.504 135.158C161.18 134.442 160.696 133.899 160.053 133.528C159.409 133.157 158.61 132.972 157.656 132.972H155.38V142.611ZM170.473 144.535C169.506 144.535 168.673 144.328 167.974 143.915C167.279 143.497 166.743 142.911 166.363 142.157C165.988 141.399 165.801 140.51 165.801 139.492C165.801 138.486 165.988 137.6 166.363 136.833C166.743 136.066 167.271 135.467 167.949 135.036C168.63 134.606 169.427 134.391 170.339 134.391C170.893 134.391 171.43 134.483 171.95 134.666C172.47 134.849 172.936 135.137 173.35 135.529C173.763 135.921 174.089 136.43 174.328 137.056C174.566 137.679 174.686 138.435 174.686 139.326V140.003H166.881V138.571H172.813C172.813 138.068 172.711 137.623 172.506 137.235C172.301 136.843 172.014 136.534 171.643 136.309C171.277 136.083 170.846 135.97 170.352 135.97C169.815 135.97 169.346 136.102 168.946 136.366C168.549 136.626 168.243 136.967 168.025 137.389C167.812 137.806 167.706 138.26 167.706 138.75V139.869C167.706 140.525 167.821 141.083 168.051 141.544C168.285 142.004 168.611 142.355 169.029 142.598C169.446 142.837 169.934 142.956 170.493 142.956C170.855 142.956 171.185 142.905 171.483 142.803C171.782 142.696 172.039 142.539 172.257 142.33C172.474 142.121 172.64 141.863 172.755 141.556L174.564 141.882C174.419 142.415 174.159 142.882 173.784 143.282C173.414 143.679 172.947 143.987 172.385 144.209C171.826 144.426 171.189 144.535 170.473 144.535ZM184.164 136.916L182.431 137.223C182.359 137.001 182.244 136.79 182.086 136.59C181.933 136.389 181.724 136.225 181.46 136.098C181.195 135.97 180.865 135.906 180.469 135.906C179.928 135.906 179.476 136.027 179.114 136.27C178.752 136.509 178.57 136.818 178.57 137.197C178.57 137.525 178.692 137.789 178.935 137.99C179.178 138.19 179.57 138.354 180.111 138.482L181.671 138.84C182.574 139.049 183.247 139.37 183.691 139.805C184.134 140.24 184.355 140.804 184.355 141.499C184.355 142.087 184.185 142.611 183.844 143.071C183.507 143.527 183.036 143.885 182.431 144.145C181.83 144.405 181.134 144.535 180.341 144.535C179.242 144.535 178.345 144.301 177.65 143.832C176.955 143.359 176.529 142.688 176.372 141.818L178.219 141.537C178.334 142.019 178.57 142.383 178.928 142.63C179.286 142.873 179.753 142.995 180.328 142.995C180.955 142.995 181.455 142.865 181.83 142.605C182.205 142.34 182.393 142.019 182.393 141.639C182.393 141.333 182.278 141.075 182.048 140.866C181.822 140.657 181.475 140.5 181.006 140.393L179.344 140.029C178.428 139.82 177.75 139.487 177.311 139.032C176.877 138.576 176.659 137.998 176.659 137.299C176.659 136.72 176.821 136.213 177.145 135.778C177.469 135.343 177.916 135.005 178.487 134.762C179.058 134.514 179.713 134.391 180.45 134.391C181.511 134.391 182.346 134.621 182.955 135.081C183.565 135.537 183.968 136.149 184.164 136.916ZM186.457 144.337V134.519H188.368V144.337H186.457ZM187.422 133.004C187.089 133.004 186.804 132.893 186.565 132.671C186.331 132.446 186.214 132.177 186.214 131.866C186.214 131.551 186.331 131.282 186.565 131.061C186.804 130.835 187.089 130.722 187.422 130.722C187.754 130.722 188.038 130.835 188.272 131.061C188.511 131.282 188.63 131.551 188.63 131.866C188.63 132.177 188.511 132.446 188.272 132.671C188.038 132.893 187.754 133.004 187.422 133.004ZM195.056 148.223C194.276 148.223 193.605 148.121 193.042 147.916C192.484 147.712 192.028 147.441 191.674 147.105C191.32 146.768 191.056 146.399 190.882 145.999L192.524 145.321C192.639 145.509 192.793 145.707 192.985 145.916C193.181 146.129 193.445 146.31 193.777 146.459C194.114 146.608 194.546 146.683 195.075 146.683C195.799 146.683 196.398 146.506 196.871 146.152C197.344 145.803 197.58 145.245 197.58 144.478V142.547H197.459C197.344 142.756 197.178 142.988 196.96 143.244C196.747 143.5 196.453 143.721 196.078 143.909C195.703 144.096 195.215 144.19 194.615 144.19C193.839 144.19 193.14 144.009 192.518 143.647C191.9 143.28 191.41 142.741 191.048 142.029C190.69 141.313 190.511 140.434 190.511 139.389C190.511 138.345 190.688 137.451 191.041 136.705C191.399 135.959 191.889 135.388 192.512 134.992C193.134 134.591 193.839 134.391 194.627 134.391C195.237 134.391 195.729 134.493 196.104 134.698C196.479 134.898 196.771 135.132 196.98 135.401C197.193 135.669 197.357 135.906 197.472 136.11H197.612V134.519H199.485V144.554C199.485 145.398 199.289 146.09 198.897 146.632C198.505 147.173 197.975 147.573 197.306 147.833C196.641 148.093 195.891 148.223 195.056 148.223ZM195.036 142.605C195.586 142.605 196.051 142.477 196.43 142.221C196.813 141.961 197.103 141.59 197.299 141.109C197.499 140.623 197.6 140.041 197.6 139.364C197.6 138.703 197.502 138.122 197.306 137.619C197.11 137.116 196.822 136.724 196.443 136.443C196.063 136.157 195.595 136.014 195.036 136.014C194.461 136.014 193.982 136.164 193.598 136.462C193.215 136.756 192.925 137.157 192.729 137.664C192.537 138.171 192.441 138.737 192.441 139.364C192.441 140.007 192.539 140.572 192.735 141.058C192.931 141.544 193.221 141.923 193.605 142.196C193.992 142.468 194.47 142.605 195.036 142.605ZM203.96 138.507V144.337H202.048V134.519H203.883V136.117H204.004C204.23 135.597 204.584 135.179 205.066 134.864C205.551 134.549 206.163 134.391 206.9 134.391C207.569 134.391 208.155 134.532 208.658 134.813C209.161 135.09 209.551 135.503 209.828 136.053C210.105 136.603 210.243 137.282 210.243 138.092V144.337H208.332V138.322C208.332 137.61 208.146 137.054 207.776 136.654C207.405 136.249 206.896 136.046 206.248 136.046C205.805 136.046 205.411 136.142 205.066 136.334C204.725 136.526 204.454 136.807 204.254 137.178C204.058 137.544 203.96 137.987 203.96 138.507Z" fill="#2B2B2B"/>
<path d="M42.2869 175.286H40.9659C40.8878 174.906 40.7511 174.572 40.5558 174.284C40.364 173.997 40.1296 173.755 39.8526 173.56C39.5792 173.361 39.2756 173.212 38.9418 173.112C38.608 173.013 38.2599 172.963 37.8977 172.963C37.2372 172.963 36.6388 173.13 36.1026 173.464C35.57 173.798 35.1456 174.29 34.8295 174.939C34.517 175.589 34.3608 176.386 34.3608 177.331C34.3608 178.276 34.517 179.073 34.8295 179.723C35.1456 180.373 35.57 180.864 36.1026 181.198C36.6388 181.532 37.2372 181.699 37.8977 181.699C38.2599 181.699 38.608 181.649 38.9418 181.55C39.2756 181.45 39.5792 181.303 39.8526 181.108C40.1296 180.909 40.364 180.666 40.5558 180.378C40.7511 180.087 40.8878 179.753 40.9659 179.377H42.2869C42.1875 179.934 42.0064 180.433 41.7436 180.873C41.4808 181.314 41.1541 181.688 40.7635 181.997C40.3729 182.303 39.9343 182.535 39.4478 182.695C38.9648 182.855 38.4482 182.935 37.8977 182.935C36.9673 182.935 36.1399 182.708 35.4155 182.253C34.6911 181.798 34.1211 181.152 33.7056 180.314C33.2901 179.476 33.0824 178.482 33.0824 177.331C33.0824 176.181 33.2901 175.186 33.7056 174.348C34.1211 173.51 34.6911 172.864 35.4155 172.409C36.1399 171.955 36.9673 171.727 37.8977 171.727C38.4482 171.727 38.9648 171.807 39.4478 171.967C39.9343 172.127 40.3729 172.361 40.7635 172.67C41.1541 172.976 41.4808 173.348 41.7436 173.789C42.0064 174.226 42.1875 174.725 42.2869 175.286ZM45.5083 177.864V182.786H44.2512V171.877H45.5083V175.882H45.6148C45.8066 175.46 46.0942 175.124 46.4777 174.875C46.8648 174.623 47.3797 174.497 48.0225 174.497C48.58 174.497 49.0683 174.609 49.4873 174.833C49.9063 175.053 50.2313 175.392 50.4621 175.85C50.6965 176.305 50.8137 176.884 50.8137 177.587V182.786H49.5566V177.672C49.5566 177.022 49.3879 176.52 49.0505 176.165C48.7167 175.806 48.2533 175.627 47.6602 175.627C47.2483 175.627 46.879 175.714 46.5523 175.888C46.2291 176.062 45.9735 176.315 45.7852 176.649C45.6006 176.983 45.5083 177.388 45.5083 177.864ZM55.5211 182.977C55.0027 182.977 54.5321 182.88 54.1096 182.684C53.687 182.486 53.3514 182.2 53.1028 181.827C52.8542 181.45 52.7299 180.996 52.7299 180.463C52.7299 179.994 52.8223 179.614 53.0069 179.323C53.1916 179.029 53.4384 178.798 53.7473 178.631C54.0563 178.464 54.3972 178.34 54.7701 178.258C55.1465 178.173 55.5247 178.105 55.9047 178.056C56.4018 177.992 56.8049 177.944 57.1138 177.912C57.4263 177.876 57.6536 177.818 57.7956 177.736C57.9412 177.654 58.014 177.512 58.014 177.31V177.267C58.014 176.742 57.8702 176.333 57.5826 176.042C57.2985 175.751 56.867 175.605 56.2882 175.605C55.688 175.605 55.2175 175.737 54.8766 175.999C54.5357 176.262 54.296 176.543 54.1575 176.841L52.9643 176.415C53.1774 175.918 53.4615 175.531 53.8166 175.254C54.1752 174.973 54.5659 174.778 54.9885 174.668C55.4146 174.554 55.8336 174.497 56.2456 174.497C56.5083 174.497 56.8102 174.529 57.1511 174.593C57.4956 174.654 57.8276 174.78 58.1472 174.971C58.4703 175.163 58.7385 175.453 58.9515 175.84C59.1646 176.227 59.2711 176.745 59.2711 177.395V182.786H58.014V181.678H57.9501C57.8649 181.855 57.7228 182.045 57.524 182.248C57.3251 182.45 57.0605 182.622 56.7303 182.764C56.4 182.906 55.997 182.977 55.5211 182.977ZM55.7129 181.848C56.21 181.848 56.6291 181.75 56.97 181.555C57.3145 181.36 57.5737 181.108 57.7477 180.799C57.9252 180.49 58.014 180.165 58.014 179.824V178.673C57.9608 178.737 57.8436 178.796 57.6625 178.849C57.4849 178.899 57.2789 178.943 57.0446 178.982C56.8137 179.018 56.5882 179.05 56.3681 179.078C56.1515 179.103 55.9757 179.124 55.8407 179.142C55.514 179.185 55.2086 179.254 54.9245 179.35C54.644 179.442 54.4167 179.583 54.2427 179.771C54.0723 179.955 53.987 180.208 53.987 180.527C53.987 180.964 54.1486 181.294 54.4718 181.518C54.7985 181.738 55.2122 181.848 55.7129 181.848ZM61.5656 182.786V174.604H62.7801V175.84H62.8653C63.0145 175.435 63.2844 175.106 63.675 174.854C64.0656 174.602 64.5059 174.476 64.996 174.476C65.0883 174.476 65.2037 174.478 65.3422 174.481C65.4807 174.485 65.5855 174.49 65.6565 174.497V175.776C65.6139 175.765 65.5162 175.749 65.3635 175.728C65.2144 175.703 65.0564 175.69 64.8895 175.69C64.4917 175.69 64.1366 175.774 63.8241 175.941C63.5152 176.104 63.2702 176.331 63.089 176.623C62.9115 176.91 62.8227 177.239 62.8227 177.608V182.786H61.5656ZM69.5543 182.977C69.0359 182.977 68.5653 182.88 68.1428 182.684C67.7202 182.486 67.3846 182.2 67.136 181.827C66.8874 181.45 66.7631 180.996 66.7631 180.463C66.7631 179.994 66.8555 179.614 67.0401 179.323C67.2248 179.029 67.4716 178.798 67.7805 178.631C68.0895 178.464 68.4304 178.34 68.8033 178.258C69.1797 178.173 69.5579 178.105 69.9379 178.056C70.435 177.992 70.8381 177.944 71.147 177.912C71.4595 177.876 71.6868 177.818 71.8288 177.736C71.9744 177.654 72.0472 177.512 72.0472 177.31V177.267C72.0472 176.742 71.9034 176.333 71.6158 176.042C71.3317 175.751 70.9002 175.605 70.3214 175.605C69.7212 175.605 69.2507 175.737 68.9098 175.999C68.5689 176.262 68.3292 176.543 68.1907 176.841L66.9975 176.415C67.2106 175.918 67.4947 175.531 67.8498 175.254C68.2085 174.973 68.5991 174.778 69.0217 174.668C69.4478 174.554 69.8668 174.497 70.2788 174.497C70.5415 174.497 70.8434 174.529 71.1843 174.593C71.5288 174.654 71.8608 174.78 72.1804 174.971C72.5036 175.163 72.7717 175.453 72.9847 175.84C73.1978 176.227 73.3043 176.745 73.3043 177.395V182.786H72.0472V181.678H71.9833C71.8981 181.855 71.756 182.045 71.5572 182.248C71.3583 182.45 71.0938 182.622 70.7635 182.764C70.4332 182.906 70.0302 182.977 69.5543 182.977ZM69.7461 181.848C70.2433 181.848 70.6623 181.75 71.0032 181.555C71.3477 181.36 71.6069 181.108 71.7809 180.799C71.9585 180.49 72.0472 180.165 72.0472 179.824V178.673C71.994 178.737 71.8768 178.796 71.6957 178.849C71.5181 178.899 71.3121 178.943 71.0778 178.982C70.8469 179.018 70.6214 179.05 70.4013 179.078C70.1847 179.103 70.0089 179.124 69.8739 179.142C69.5472 179.185 69.2418 179.254 68.9577 179.35C68.6772 179.442 68.4499 179.583 68.2759 179.771C68.1055 179.955 68.0202 180.208 68.0202 180.527C68.0202 180.964 68.1818 181.294 68.505 181.518C68.8317 181.738 69.2454 181.848 69.7461 181.848ZM78.9227 182.956C78.1556 182.956 77.4951 182.775 76.9411 182.413C76.3872 182.051 75.961 181.552 75.6627 180.916C75.3644 180.28 75.2153 179.554 75.2153 178.737C75.2153 177.906 75.368 177.173 75.6734 176.537C75.9823 175.898 76.412 175.399 76.9624 175.041C77.5164 174.678 78.1627 174.497 78.9014 174.497C79.4767 174.497 79.9951 174.604 80.4568 174.817C80.9184 175.03 81.2966 175.328 81.5914 175.712C81.8861 176.095 82.069 176.543 82.14 177.054H80.8829C80.787 176.681 80.574 176.351 80.2437 176.063C79.917 175.772 79.4767 175.627 78.9227 175.627C78.4326 175.627 78.0029 175.754 77.6336 176.01C77.2678 176.262 76.982 176.619 76.776 177.081C76.5736 177.539 76.4724 178.077 76.4724 178.695C76.4724 179.327 76.5718 179.877 76.7707 180.346C76.9731 180.815 77.2572 181.179 77.623 181.438C77.9923 181.697 78.4255 181.827 78.9227 181.827C79.2494 181.827 79.5459 181.77 79.8122 181.656C80.0786 181.543 80.3041 181.379 80.4887 181.166C80.6734 180.953 80.8048 180.698 80.8829 180.399H82.14C82.069 180.882 81.8932 181.317 81.6127 181.704C81.3357 182.088 80.9681 182.393 80.51 182.621C80.0555 182.844 79.5264 182.956 78.9227 182.956ZM87.536 174.604V175.669H83.2959V174.604H87.536ZM84.5317 172.644H85.7888V180.442C85.7888 180.797 85.8403 181.063 85.9433 181.241C86.0498 181.415 86.1847 181.532 86.3481 181.592C86.515 181.649 86.6908 181.678 86.8754 181.678C87.0139 181.678 87.1276 181.671 87.2164 181.656C87.3051 181.639 87.3762 181.624 87.4294 181.614L87.6851 182.743C87.5999 182.775 87.4809 182.807 87.3282 182.839C87.1755 182.874 86.982 182.892 86.7476 182.892C86.3925 182.892 86.0445 182.816 85.7036 182.663C85.3662 182.51 85.0857 182.278 84.8619 181.965C84.6418 181.653 84.5317 181.259 84.5317 180.783V172.644ZM92.8573 182.956C92.069 182.956 91.3889 182.782 90.8172 182.434C90.249 182.083 89.8105 181.592 89.5015 180.964C89.1961 180.332 89.0434 179.597 89.0434 178.759C89.0434 177.921 89.1961 177.182 89.5015 176.543C89.8105 175.9 90.2401 175.399 90.7906 175.041C91.3445 174.678 91.9909 174.497 92.7295 174.497C93.1556 174.497 93.5764 174.568 93.9919 174.71C94.4074 174.852 94.7856 175.083 95.1265 175.403C95.4674 175.719 95.7391 176.138 95.9415 176.66C96.1439 177.182 96.2451 177.825 96.2451 178.588V179.121H89.9383V178.034H94.9667C94.9667 177.573 94.8744 177.161 94.6897 176.798C94.5086 176.436 94.2494 176.15 93.912 175.941C93.5782 175.731 93.184 175.627 92.7295 175.627C92.2288 175.627 91.7955 175.751 91.4298 175.999C91.0676 176.244 90.7888 176.564 90.5935 176.958C90.3982 177.352 90.3005 177.775 90.3005 178.226V178.95C90.3005 179.568 90.407 180.092 90.6201 180.522C90.8367 180.948 91.1368 181.273 91.5203 181.497C91.9039 181.717 92.3495 181.827 92.8573 181.827C93.1876 181.827 93.4859 181.781 93.7522 181.688C94.0221 181.592 94.2547 181.45 94.45 181.262C94.6453 181.07 94.7963 180.833 94.9028 180.548L96.1173 180.889C95.9894 181.301 95.7746 181.663 95.4727 181.976C95.1709 182.285 94.798 182.526 94.3541 182.7C93.9102 182.871 93.4113 182.956 92.8573 182.956ZM98.1574 182.786V174.604H99.3719V175.84H99.4571C99.6063 175.435 99.8762 175.106 100.267 174.854C100.657 174.602 101.098 174.476 101.588 174.476C101.68 174.476 101.796 174.478 101.934 174.481C102.073 174.485 102.177 174.49 102.248 174.497V175.776C102.206 175.765 102.108 175.749 101.955 175.728C101.806 175.703 101.648 175.69 101.481 175.69C101.084 175.69 100.728 175.774 100.416 175.941C100.107 176.104 99.8619 176.331 99.6808 176.623C99.5033 176.91 99.4145 177.239 99.4145 177.608V182.786H98.1574ZM111.494 182.786H108.128V171.877H111.643C112.702 171.877 113.607 172.095 114.36 172.532C115.113 172.965 115.69 173.588 116.091 174.401C116.492 175.211 116.693 176.181 116.693 177.31C116.693 178.446 116.491 179.424 116.086 180.245C115.681 181.062 115.091 181.69 114.317 182.13C113.543 182.567 112.602 182.786 111.494 182.786ZM109.449 181.614H111.409C112.311 181.614 113.058 181.44 113.651 181.092C114.244 180.744 114.687 180.248 114.978 179.606C115.269 178.963 115.415 178.198 115.415 177.31C115.415 176.429 115.271 175.671 114.983 175.035C114.695 174.396 114.266 173.906 113.694 173.565C113.122 173.221 112.41 173.048 111.558 173.048H109.449V181.614ZM122.169 182.956C121.381 182.956 120.7 182.782 120.129 182.434C119.561 182.083 119.122 181.592 118.813 180.964C118.508 180.332 118.355 179.597 118.355 178.759C118.355 177.921 118.508 177.182 118.813 176.543C119.122 175.9 119.552 175.399 120.102 175.041C120.656 174.678 121.302 174.497 122.041 174.497C122.467 174.497 122.888 174.568 123.303 174.71C123.719 174.852 124.097 175.083 124.438 175.403C124.779 175.719 125.051 176.138 125.253 176.66C125.455 177.182 125.557 177.825 125.557 178.588V179.121H119.25V178.034H124.278C124.278 177.573 124.186 177.161 124.001 176.798C123.82 176.436 123.561 176.15 123.224 175.941C122.89 175.731 122.496 175.627 122.041 175.627C121.54 175.627 121.107 175.751 120.741 175.999C120.379 176.244 120.1 176.564 119.905 176.958C119.71 177.352 119.612 177.775 119.612 178.226V178.95C119.612 179.568 119.719 180.092 119.932 180.522C120.148 180.948 120.448 181.273 120.832 181.497C121.215 181.717 121.661 181.827 122.169 181.827C122.499 181.827 122.797 181.781 123.064 181.688C123.334 181.592 123.566 181.45 123.762 181.262C123.957 181.07 124.108 180.833 124.214 180.548L125.429 180.889C125.301 181.301 125.086 181.663 124.784 181.976C124.482 182.285 124.11 182.526 123.666 182.7C123.222 182.871 122.723 182.956 122.169 182.956ZM133.264 176.436L132.135 176.756C132.064 176.568 131.959 176.385 131.821 176.207C131.686 176.026 131.501 175.877 131.267 175.76C131.032 175.643 130.732 175.584 130.367 175.584C129.866 175.584 129.449 175.699 129.115 175.93C128.785 176.157 128.619 176.447 128.619 176.798C128.619 177.111 128.733 177.358 128.96 177.539C129.188 177.72 129.543 177.871 130.026 177.992L131.24 178.29C131.972 178.467 132.517 178.739 132.876 179.105C133.234 179.467 133.414 179.934 133.414 180.506C133.414 180.975 133.279 181.394 133.009 181.763C132.742 182.132 132.369 182.423 131.89 182.636C131.411 182.85 130.853 182.956 130.218 182.956C129.383 182.956 128.692 182.775 128.145 182.413C127.599 182.051 127.252 181.521 127.107 180.825L128.3 180.527C128.414 180.967 128.628 181.298 128.944 181.518C129.264 181.738 129.681 181.848 130.196 181.848C130.782 181.848 131.247 181.724 131.592 181.475C131.94 181.223 132.114 180.921 132.114 180.57C132.114 180.286 132.014 180.048 131.816 179.856C131.617 179.661 131.311 179.515 130.899 179.419L129.536 179.1C128.786 178.922 128.236 178.647 127.884 178.274C127.536 177.898 127.362 177.427 127.362 176.862C127.362 176.401 127.492 175.992 127.751 175.637C128.014 175.282 128.371 175.003 128.822 174.801C129.276 174.598 129.791 174.497 130.367 174.497C131.176 174.497 131.812 174.675 132.274 175.03C132.739 175.385 133.069 175.854 133.264 176.436ZM135.306 182.786V174.604H136.563V182.786H135.306ZM135.945 173.24C135.7 173.24 135.489 173.157 135.311 172.99C135.137 172.823 135.05 172.622 135.05 172.388C135.05 172.154 135.137 171.953 135.311 171.786C135.489 171.619 135.7 171.536 135.945 171.536C136.19 171.536 136.4 171.619 136.574 171.786C136.751 171.953 136.84 172.154 136.84 172.388C136.84 172.622 136.751 172.823 136.574 172.99C136.4 173.157 136.19 173.24 135.945 173.24ZM142.168 186.024C141.561 186.024 141.039 185.946 140.602 185.79C140.165 185.637 139.801 185.435 139.51 185.183C139.222 184.934 138.993 184.668 138.823 184.384L139.824 183.681C139.938 183.83 140.082 184 140.256 184.192C140.43 184.387 140.668 184.556 140.969 184.698C141.275 184.844 141.674 184.916 142.168 184.916C142.828 184.916 143.374 184.757 143.803 184.437C144.233 184.117 144.448 183.617 144.448 182.935V181.273H144.341C144.249 181.422 144.118 181.607 143.947 181.827C143.78 182.043 143.539 182.237 143.223 182.407C142.91 182.574 142.488 182.658 141.955 182.658C141.294 182.658 140.701 182.502 140.176 182.189C139.654 181.877 139.24 181.422 138.935 180.825C138.633 180.229 138.482 179.504 138.482 178.652C138.482 177.814 138.629 177.084 138.924 176.463C139.219 175.838 139.629 175.355 140.154 175.014C140.68 174.67 141.287 174.497 141.976 174.497C142.509 174.497 142.931 174.586 143.244 174.764C143.56 174.938 143.801 175.136 143.968 175.36C144.139 175.58 144.27 175.761 144.363 175.904H144.49V174.604H145.705V183.02C145.705 183.723 145.545 184.295 145.225 184.735C144.909 185.179 144.483 185.504 143.947 185.71C143.414 185.92 142.821 186.024 142.168 186.024ZM142.125 181.529C142.63 181.529 143.056 181.413 143.404 181.182C143.752 180.951 144.016 180.619 144.197 180.186C144.379 179.753 144.469 179.235 144.469 178.631C144.469 178.041 144.38 177.521 144.203 177.07C144.025 176.619 143.762 176.266 143.414 176.01C143.066 175.754 142.637 175.627 142.125 175.627C141.593 175.627 141.149 175.761 140.794 176.031C140.442 176.301 140.178 176.663 140 177.118C139.826 177.573 139.739 178.077 139.739 178.631C139.739 179.199 139.828 179.701 140.005 180.138C140.186 180.572 140.453 180.912 140.804 181.161C141.159 181.406 141.6 181.529 142.125 181.529ZM149.263 177.864V182.786H148.006V174.604H149.221V175.882H149.327C149.519 175.467 149.81 175.133 150.201 174.881C150.591 174.625 151.096 174.497 151.713 174.497C152.267 174.497 152.752 174.611 153.168 174.838C153.583 175.062 153.906 175.403 154.137 175.861C154.368 176.315 154.483 176.891 154.483 177.587V182.786H153.226V177.672C153.226 177.029 153.059 176.529 152.725 176.17C152.392 175.808 151.934 175.627 151.351 175.627C150.95 175.627 150.591 175.714 150.275 175.888C149.963 176.062 149.716 176.315 149.535 176.649C149.354 176.983 149.263 177.388 149.263 177.864ZM158.655 181.294L158.57 181.869C158.51 182.274 158.418 182.708 158.293 183.169C158.172 183.631 158.046 184.066 157.915 184.474C157.784 184.883 157.675 185.208 157.59 185.449H156.631C156.677 185.222 156.738 184.922 156.812 184.549C156.887 184.176 156.962 183.759 157.036 183.297C157.114 182.839 157.178 182.37 157.228 181.891L157.292 181.294H158.655ZM165.374 182.786V171.877H169.06C169.916 171.877 170.615 172.031 171.159 172.34C171.705 172.645 172.11 173.059 172.373 173.581C172.636 174.103 172.767 174.686 172.767 175.328C172.767 175.971 172.636 176.555 172.373 177.081C172.114 177.606 171.713 178.025 171.169 178.338C170.626 178.647 169.93 178.801 169.081 178.801H166.439V177.629H169.039C169.624 177.629 170.095 177.528 170.45 177.326C170.805 177.123 171.063 176.85 171.222 176.505C171.386 176.157 171.468 175.765 171.468 175.328C171.468 174.891 171.386 174.501 171.222 174.156C171.063 173.812 170.803 173.542 170.445 173.347C170.086 173.148 169.61 173.048 169.017 173.048H166.695V182.786H165.374ZM174.725 182.786V174.604H175.939V175.84H176.025C176.174 175.435 176.444 175.106 176.834 174.854C177.225 174.602 177.665 174.476 178.155 174.476C178.248 174.476 178.363 174.478 178.501 174.481C178.64 174.485 178.745 174.49 178.816 174.497V175.776C178.773 175.765 178.675 175.749 178.523 175.728C178.374 175.703 178.216 175.69 178.049 175.69C177.651 175.69 177.296 175.774 176.983 175.941C176.674 176.104 176.429 176.331 176.248 176.623C176.071 176.91 175.982 177.239 175.982 177.608V182.786H174.725ZM183.63 182.956C182.891 182.956 182.243 182.78 181.685 182.429C181.131 182.077 180.698 181.585 180.386 180.953C180.077 180.321 179.922 179.583 179.922 178.737C179.922 177.885 180.077 177.141 180.386 176.505C180.698 175.87 181.131 175.376 181.685 175.025C182.243 174.673 182.891 174.497 183.63 174.497C184.368 174.497 185.015 174.673 185.569 175.025C186.126 175.376 186.559 175.87 186.868 176.505C187.181 177.141 187.337 177.885 187.337 178.737C187.337 179.583 187.181 180.321 186.868 180.953C186.559 181.585 186.126 182.077 185.569 182.429C185.015 182.78 184.368 182.956 183.63 182.956ZM183.63 181.827C184.191 181.827 184.652 181.683 185.015 181.395C185.377 181.108 185.645 180.73 185.819 180.261C185.993 179.792 186.08 179.284 186.08 178.737C186.08 178.19 185.993 177.681 185.819 177.209C185.645 176.736 185.377 176.355 185.015 176.063C184.652 175.772 184.191 175.627 183.63 175.627C183.069 175.627 182.607 175.772 182.245 176.063C181.883 176.355 181.614 176.736 181.44 177.209C181.266 177.681 181.179 178.19 181.179 178.737C181.179 179.284 181.266 179.792 181.44 180.261C181.614 180.73 181.883 181.108 182.245 181.395C182.607 181.683 183.069 181.827 183.63 181.827ZM189.256 185.854V174.604H190.471V175.904H190.62C190.712 175.761 190.84 175.58 191.003 175.36C191.17 175.136 191.408 174.938 191.717 174.764C192.029 174.586 192.452 174.497 192.985 174.497C193.674 174.497 194.281 174.67 194.806 175.014C195.332 175.358 195.742 175.847 196.037 176.479C196.332 177.111 196.479 177.857 196.479 178.716C196.479 179.583 196.332 180.334 196.037 180.969C195.742 181.601 195.334 182.091 194.812 182.439C194.29 182.784 193.688 182.956 193.006 182.956C192.48 182.956 192.06 182.869 191.744 182.695C191.428 182.518 191.184 182.317 191.014 182.093C190.843 181.866 190.712 181.678 190.62 181.529H190.513V185.854H189.256ZM190.492 178.695C190.492 179.313 190.582 179.858 190.763 180.33C190.945 180.799 191.209 181.166 191.557 181.433C191.905 181.695 192.331 181.827 192.836 181.827C193.361 181.827 193.8 181.688 194.151 181.411C194.506 181.131 194.773 180.754 194.95 180.282C195.131 179.806 195.222 179.277 195.222 178.695C195.222 178.119 195.133 177.601 194.956 177.139C194.782 176.674 194.517 176.307 194.162 176.037C193.81 175.763 193.368 175.627 192.836 175.627C192.324 175.627 191.895 175.756 191.547 176.015C191.199 176.271 190.936 176.63 190.758 177.091C190.581 177.549 190.492 178.084 190.492 178.695ZM204.192 176.436L203.063 176.756C202.992 176.568 202.887 176.385 202.749 176.207C202.614 176.026 202.429 175.877 202.195 175.76C201.96 175.643 201.66 175.584 201.294 175.584C200.794 175.584 200.376 175.699 200.043 175.93C199.712 176.157 199.547 176.447 199.547 176.798C199.547 177.111 199.661 177.358 199.888 177.539C200.115 177.72 200.471 177.871 200.953 177.992L202.168 178.29C202.9 178.467 203.445 178.739 203.803 179.105C204.162 179.467 204.341 179.934 204.341 180.506C204.341 180.975 204.206 181.394 203.936 181.763C203.67 182.132 203.297 182.423 202.818 182.636C202.338 182.85 201.781 182.956 201.145 182.956C200.311 182.956 199.62 182.775 199.073 182.413C198.526 182.051 198.18 181.521 198.034 180.825L199.228 180.527C199.341 180.967 199.556 181.298 199.872 181.518C200.192 181.738 200.609 181.848 201.124 181.848C201.71 181.848 202.175 181.724 202.52 181.475C202.868 181.223 203.042 180.921 203.042 180.57C203.042 180.286 202.942 180.048 202.743 179.856C202.544 179.661 202.239 179.515 201.827 179.419L200.463 179.1C199.714 178.922 199.164 178.647 198.812 178.274C198.464 177.898 198.29 177.427 198.29 176.862C198.29 176.401 198.42 175.992 198.679 175.637C198.942 175.282 199.299 175.003 199.75 174.801C200.204 174.598 200.719 174.497 201.294 174.497C202.104 174.497 202.74 174.675 203.201 175.03C203.667 175.385 203.997 175.854 204.192 176.436ZM213.542 182.935C212.824 182.935 212.207 182.803 211.688 182.541C211.17 182.278 210.77 181.917 210.49 181.459C210.209 181.001 210.069 180.477 210.069 179.888C210.069 179.433 210.165 179.03 210.356 178.679C210.552 178.324 210.82 177.995 211.161 177.693C211.505 177.388 211.901 177.083 212.349 176.777L213.925 175.605C214.234 175.403 214.481 175.186 214.666 174.955C214.854 174.725 214.948 174.423 214.948 174.05C214.948 173.773 214.826 173.505 214.581 173.246C214.339 172.986 214.021 172.857 213.627 172.857C213.35 172.857 213.105 172.928 212.892 173.07C212.682 173.208 212.517 173.386 212.397 173.602C212.279 173.815 212.221 174.036 212.221 174.263C212.221 174.519 212.29 174.778 212.429 175.041C212.571 175.3 212.75 175.566 212.967 175.84C213.187 176.11 213.414 176.386 213.648 176.671L218.655 182.786H217.143L213.009 177.8C212.626 177.338 212.278 176.919 211.965 176.543C211.653 176.166 211.404 175.795 211.219 175.429C211.035 175.064 210.942 174.668 210.942 174.242C210.942 173.752 211.051 173.322 211.267 172.953C211.487 172.58 211.795 172.29 212.189 172.084C212.587 171.875 213.052 171.77 213.584 171.77C214.131 171.77 214.602 171.877 214.996 172.09C215.39 172.299 215.694 172.578 215.907 172.926C216.12 173.27 216.226 173.645 216.226 174.05C216.226 174.572 216.097 175.025 215.838 175.408C215.578 175.792 215.225 176.149 214.778 176.479L212.604 178.098C212.114 178.46 211.782 178.812 211.608 179.153C211.434 179.494 211.347 179.739 211.347 179.888C211.347 180.229 211.436 180.547 211.614 180.841C211.791 181.136 212.041 181.374 212.365 181.555C212.688 181.736 213.066 181.827 213.499 181.827C213.911 181.827 214.312 181.74 214.703 181.566C215.094 181.388 215.447 181.133 215.763 180.799C216.083 180.465 216.335 180.064 216.519 179.595C216.708 179.126 216.802 178.599 216.802 178.013H218.016C218.016 178.737 217.933 179.329 217.766 179.787C217.599 180.245 217.411 180.603 217.201 180.863C216.992 181.122 216.823 181.315 216.695 181.443C216.653 181.497 216.614 181.55 216.578 181.603C216.543 181.656 216.503 181.71 216.461 181.763C216.109 182.157 215.665 182.452 215.129 182.647C214.593 182.839 214.064 182.935 213.542 182.935ZM233.641 177.331C233.641 178.482 233.433 179.476 233.018 180.314C232.602 181.152 232.032 181.798 231.308 182.253C230.583 182.708 229.756 182.935 228.825 182.935C227.895 182.935 227.068 182.708 226.343 182.253C225.619 181.798 225.049 181.152 224.633 180.314C224.218 179.476 224.01 178.482 224.01 177.331C224.01 176.181 224.218 175.186 224.633 174.348C225.049 173.51 225.619 172.864 226.343 172.409C227.068 171.955 227.895 171.727 228.825 171.727C229.756 171.727 230.583 171.955 231.308 172.409C232.032 172.864 232.602 173.51 233.018 174.348C233.433 175.186 233.641 176.181 233.641 177.331ZM232.362 177.331C232.362 176.386 232.204 175.589 231.888 174.939C231.576 174.29 231.151 173.798 230.615 173.464C230.083 173.13 229.486 172.963 228.825 172.963C228.165 172.963 227.567 173.13 227.03 173.464C226.498 173.798 226.073 174.29 225.757 174.939C225.445 175.589 225.289 176.386 225.289 177.331C225.289 178.276 225.445 179.073 225.757 179.723C226.073 180.373 226.498 180.864 227.03 181.198C227.567 181.532 228.165 181.699 228.825 181.699C229.486 181.699 230.083 181.532 230.615 181.198C231.151 180.864 231.576 180.373 231.888 179.723C232.204 179.073 232.362 178.276 232.362 177.331ZM235.862 182.786V171.877H237.119V175.904H237.226C237.318 175.761 237.446 175.58 237.609 175.36C237.776 175.136 238.014 174.938 238.323 174.764C238.635 174.586 239.058 174.497 239.591 174.497C240.28 174.497 240.887 174.67 241.412 175.014C241.938 175.358 242.348 175.847 242.643 176.479C242.938 177.111 243.085 177.857 243.085 178.716C243.085 179.583 242.938 180.334 242.643 180.969C242.348 181.601 241.94 182.091 241.418 182.439C240.896 182.784 240.294 182.956 239.612 182.956C239.086 182.956 238.666 182.869 238.35 182.695C238.034 182.518 237.79 182.317 237.62 182.093C237.449 181.866 237.318 181.678 237.226 181.529H237.077V182.786H235.862ZM237.098 178.695C237.098 179.313 237.188 179.858 237.369 180.33C237.551 180.799 237.815 181.166 238.163 181.433C238.511 181.695 238.937 181.827 239.442 181.827C239.967 181.827 240.406 181.688 240.757 181.411C241.112 181.131 241.379 180.754 241.556 180.282C241.737 179.806 241.828 179.277 241.828 178.695C241.828 178.119 241.739 177.601 241.562 177.139C241.388 176.674 241.123 176.307 240.768 176.037C240.416 175.763 239.974 175.627 239.442 175.627C238.93 175.627 238.501 175.756 238.153 176.015C237.805 176.271 237.542 176.63 237.364 177.091C237.187 177.549 237.098 178.084 237.098 178.695ZM245.008 174.604H246.265V183.382C246.265 183.886 246.178 184.323 246.004 184.693C245.834 185.062 245.574 185.348 245.226 185.55C244.882 185.753 244.447 185.854 243.921 185.854C243.879 185.854 243.836 185.854 243.794 185.854C243.751 185.854 243.708 185.854 243.666 185.854V184.682C243.708 184.682 243.747 184.682 243.783 184.682C243.818 184.682 243.857 184.682 243.9 184.682C244.284 184.682 244.564 184.568 244.742 184.341C244.919 184.117 245.008 183.798 245.008 183.382V174.604ZM245.626 173.24C245.381 173.24 245.17 173.157 244.992 172.99C244.818 172.823 244.731 172.622 244.731 172.388C244.731 172.154 244.818 171.953 244.992 171.786C245.17 171.619 245.381 171.536 245.626 171.536C245.871 171.536 246.08 171.619 246.254 171.786C246.432 171.953 246.521 172.154 246.521 172.388C246.521 172.622 246.432 172.823 246.254 172.99C246.08 173.157 245.871 173.24 245.626 173.24ZM251.998 182.956C251.21 182.956 250.53 182.782 249.958 182.434C249.39 182.083 248.951 181.592 248.642 180.964C248.337 180.332 248.184 179.597 248.184 178.759C248.184 177.921 248.337 177.182 248.642 176.543C248.951 175.9 249.381 175.399 249.931 175.041C250.485 174.678 251.131 174.497 251.87 174.497C252.296 174.497 252.717 174.568 253.133 174.71C253.548 174.852 253.926 175.083 254.267 175.403C254.608 175.719 254.88 176.138 255.082 176.66C255.285 177.182 255.386 177.825 255.386 178.588V179.121H249.079V178.034H254.107C254.107 177.573 254.015 177.161 253.83 176.798C253.649 176.436 253.39 176.15 253.053 175.941C252.719 175.731 252.325 175.627 251.87 175.627C251.369 175.627 250.936 175.751 250.57 175.999C250.208 176.244 249.929 176.564 249.734 176.958C249.539 177.352 249.441 177.775 249.441 178.226V178.95C249.441 179.568 249.548 180.092 249.761 180.522C249.977 180.948 250.277 181.273 250.661 181.497C251.044 181.717 251.49 181.827 251.998 181.827C252.328 181.827 252.627 181.781 252.893 181.688C253.163 181.592 253.395 181.45 253.591 181.262C253.786 181.07 253.937 180.833 254.043 180.548L255.258 180.889C255.13 181.301 254.915 181.663 254.613 181.976C254.312 182.285 253.939 182.526 253.495 182.7C253.051 182.871 252.552 182.956 251.998 182.956ZM260.622 182.956C259.855 182.956 259.194 182.775 258.64 182.413C258.086 182.051 257.66 181.552 257.362 180.916C257.064 180.28 256.915 179.554 256.915 178.737C256.915 177.906 257.067 177.173 257.373 176.537C257.682 175.898 258.111 175.399 258.662 175.041C259.216 174.678 259.862 174.497 260.601 174.497C261.176 174.497 261.694 174.604 262.156 174.817C262.618 175.03 262.996 175.328 263.291 175.712C263.585 176.095 263.768 176.543 263.839 177.054H262.582C262.486 176.681 262.273 176.351 261.943 176.063C261.616 175.772 261.176 175.627 260.622 175.627C260.132 175.627 259.702 175.754 259.333 176.01C258.967 176.262 258.681 176.619 258.475 177.081C258.273 177.539 258.172 178.077 258.172 178.695C258.172 179.327 258.271 179.877 258.47 180.346C258.672 180.815 258.956 181.179 259.322 181.438C259.691 181.697 260.125 181.827 260.622 181.827C260.949 181.827 261.245 181.77 261.511 181.656C261.778 181.543 262.003 181.379 262.188 181.166C262.373 180.953 262.504 180.698 262.582 180.399H263.839C263.768 180.882 263.592 181.317 263.312 181.704C263.035 182.088 262.667 182.393 262.209 182.621C261.755 182.844 261.226 182.956 260.622 182.956ZM269.235 174.604V175.669H264.995V174.604H269.235ZM266.231 172.644H267.488V180.442C267.488 180.797 267.54 181.063 267.642 181.241C267.749 181.415 267.884 181.532 268.047 181.592C268.214 181.649 268.39 181.678 268.575 181.678C268.713 181.678 268.827 181.671 268.916 181.656C269.004 181.639 269.075 181.624 269.129 181.614L269.384 182.743C269.299 182.775 269.18 182.807 269.027 182.839C268.875 182.874 268.681 182.892 268.447 182.892C268.092 182.892 267.744 182.816 267.403 182.663C267.065 182.51 266.785 182.278 266.561 181.965C266.341 181.653 266.231 181.259 266.231 180.783V172.644ZM276.922 176.436L275.792 176.756C275.721 176.568 275.617 176.385 275.478 176.207C275.343 176.026 275.158 175.877 274.924 175.76C274.69 175.643 274.39 175.584 274.024 175.584C273.523 175.584 273.106 175.699 272.772 175.93C272.442 176.157 272.277 176.447 272.277 176.798C272.277 177.111 272.39 177.358 272.618 177.539C272.845 177.72 273.2 177.871 273.683 177.992L274.897 178.29C275.629 178.467 276.174 178.739 276.533 179.105C276.891 179.467 277.071 179.934 277.071 180.506C277.071 180.975 276.936 181.394 276.666 181.763C276.4 182.132 276.027 182.423 275.547 182.636C275.068 182.85 274.51 182.956 273.875 182.956C273.04 182.956 272.35 182.775 271.803 182.413C271.256 182.051 270.91 181.521 270.764 180.825L271.957 180.527C272.071 180.967 272.286 181.298 272.602 181.518C272.921 181.738 273.339 181.848 273.853 181.848C274.439 181.848 274.905 181.724 275.249 181.475C275.597 181.223 275.771 180.921 275.771 180.57C275.771 180.286 275.672 180.048 275.473 179.856C275.274 179.661 274.968 179.515 274.557 179.419L273.193 179.1C272.444 178.922 271.893 178.647 271.542 178.274C271.194 177.898 271.02 177.427 271.02 176.862C271.02 176.401 271.149 175.992 271.408 175.637C271.671 175.282 272.028 175.003 272.479 174.801C272.934 174.598 273.449 174.497 274.024 174.497C274.834 174.497 275.469 174.675 275.931 175.03C276.396 175.385 276.726 175.854 276.922 176.436Z" fill="#767676"/>
</svg>
