<svg width="310" height="222" viewBox="0 0 310 222" fill="none" xmlns="http://www.w3.org/2000/svg">
<rect y="0.101074" width="310" height="221.899" fill="white"/>
<g clip-path="url(#clip0_2_637)">
<path d="M171.355 96.7184H190.712L185.743 82.0146C184.444 78.1696 181.127 75.3184 177.088 74.5715L163.806 72.1148V69.0837C166.988 66.8194 169.234 63.3702 169.885 59.3924C172.854 58.8974 175.129 56.3601 175.129 53.293V44.608C175.129 33.6623 166.098 24.7563 155 24.7563C143.901 24.7563 134.871 33.6623 134.871 44.608V53.293C134.871 56.3564 137.134 58.9086 140.098 59.4086C140.752 63.3863 143.01 66.8393 146.193 69.1024V72.1161L132.911 74.5727C128.872 75.3196 125.555 78.1708 124.255 82.0158L119.287 96.7184H138.645V94.237H135.224L137.349 85.8521L134.908 85.2516L132.63 94.237H122.777L126.643 82.8C127.653 79.8098 130.234 77.5914 133.375 77.0095L141.389 75.5281L143.438 84.6201C142.1 85.1933 141.161 86.506 141.161 88.0333V97.9591C141.161 100.011 142.854 101.681 144.935 101.681H165.064C167.145 101.681 168.839 100.011 168.839 97.9591V88.0333C168.839 86.506 167.9 85.1933 166.563 84.6201L168.612 75.5281L176.626 77.0095C179.767 77.5914 182.346 79.8098 183.358 82.8L187.223 94.237H177.369L175.091 85.2516L172.65 85.8521L174.775 94.237H171.355V96.7184ZM166.137 75.0702L164.4 82.7801L163.531 79.3483H158.037L162.968 74.4846L166.137 75.0702ZM162.195 84.3112H147.805L148.434 81.8297H161.566L162.195 84.3112ZM155 78.8346L148.709 72.631V70.5391C150.627 71.4101 152.754 71.9039 155 71.9039C157.247 71.9039 159.373 71.4039 161.29 70.5329V72.631L155 78.8346ZM170.097 56.7869V49.8004C171.557 50.314 172.613 51.6788 172.613 53.2943C172.613 54.9097 171.557 56.2733 170.097 56.7869ZM139.903 56.803C138.439 56.2906 137.387 54.9109 137.387 53.293C137.387 51.6751 138.439 50.2954 139.903 49.783V56.803ZM137.387 48.3624V44.608C137.387 35.0296 145.288 27.2378 155 27.2378C164.712 27.2378 172.613 35.0296 172.613 44.608V48.3624C171.868 47.8065 171.007 47.3959 170.056 47.211C169.859 45.7457 168.598 44.608 167.06 44.608C166.261 44.608 165.478 44.9281 164.849 45.5484C162.724 47.644 160.032 48.9803 157.116 49.4145L157.196 49.2557C157.405 48.8413 157.516 48.3785 157.516 47.9157V47.6031C157.516 45.9517 156.153 44.608 154.479 44.608C153.68 44.608 152.898 44.9281 152.331 45.4851C149.681 48.0981 146.164 49.5473 142.419 49.5709V47.0894H141.161C139.739 47.0894 138.441 47.5745 137.387 48.3624ZM142.419 57.0152V52.0523C146.836 52.0287 150.985 50.3215 154.109 47.2408C154.412 46.9405 155 47.1849 155 47.6031V47.9157C155 47.9951 154.981 48.0745 154.944 48.1465L152.964 52.0523H155C159.393 52.0523 163.522 50.3662 166.69 47.2408C166.994 46.9405 167.58 47.1849 167.58 47.6031V57.0152C167.58 63.8566 161.937 69.4225 155 69.4225C148.063 69.4225 142.419 63.8566 142.419 57.0152ZM147.031 74.4846L151.963 79.3483H146.469L145.6 82.7801L143.862 75.0702L147.031 74.4846ZM144.935 99.1999C144.242 99.1999 143.677 98.644 143.677 97.9591V88.0333C143.677 87.3485 144.242 86.7926 144.935 86.7926H148.849C147.212 88.3708 146.193 90.5669 146.193 92.9962C146.193 95.4256 147.212 97.6217 148.849 99.1999H144.935ZM155 99.1999C151.531 99.1999 148.709 96.4169 148.709 92.9962C148.709 89.5756 151.531 86.7926 155 86.7926C158.468 86.7926 161.29 89.5756 161.29 92.9962C161.29 96.4169 158.468 99.1999 155 99.1999ZM166.322 97.9591C166.322 98.644 165.758 99.1999 165.064 99.1999H161.15C162.787 97.6217 163.806 95.4256 163.806 92.9962C163.806 90.5669 162.787 88.3708 161.15 86.7926H165.064C165.758 86.7926 166.322 87.3485 166.322 88.0333V97.9591Z" fill="#FFB400"/>
<path d="M155 89.2739C152.919 89.2739 151.226 90.9439 151.226 92.9961C151.226 95.0483 152.919 96.7183 155 96.7183C157.081 96.7183 158.774 95.0483 158.774 92.9961C158.774 90.9439 157.081 89.2739 155 89.2739ZM155 94.2368C154.307 94.2368 153.742 93.681 153.742 92.9961C153.742 92.3112 154.307 91.7554 155 91.7554C155.693 91.7554 156.258 92.3112 156.258 92.9961C156.258 93.681 155.693 94.2368 155 94.2368Z" fill="#FFB400"/>
</g>
<path d="M100.438 144.337V131.246H105.104C106.123 131.246 106.967 131.431 107.636 131.802C108.305 132.173 108.805 132.68 109.138 133.323C109.47 133.963 109.636 134.683 109.636 135.484C109.636 136.289 109.468 137.014 109.131 137.657C108.799 138.296 108.296 138.804 107.623 139.179C106.954 139.549 106.112 139.735 105.098 139.735H101.889V138.06H104.919C105.563 138.06 106.085 137.949 106.485 137.728C106.886 137.502 107.18 137.195 107.367 136.807C107.555 136.419 107.648 135.978 107.648 135.484C107.648 134.99 107.555 134.551 107.367 134.167C107.18 133.784 106.884 133.483 106.479 133.266C106.078 133.049 105.55 132.94 104.893 132.94H102.413V144.337H100.438ZM113.71 138.507V144.337H111.798V131.246H113.684V136.117H113.806C114.036 135.588 114.387 135.169 114.86 134.858C115.333 134.546 115.951 134.391 116.714 134.391C117.387 134.391 117.975 134.529 118.478 134.806C118.985 135.083 119.377 135.497 119.654 136.046C119.936 136.592 120.076 137.274 120.076 138.092V144.337H118.165V138.322C118.165 137.602 117.98 137.044 117.609 136.647C117.238 136.247 116.722 136.046 116.062 136.046C115.61 136.046 115.205 136.142 114.847 136.334C114.494 136.526 114.215 136.807 114.01 137.178C113.81 137.544 113.71 137.987 113.71 138.507ZM126.762 144.535C125.842 144.535 125.039 144.324 124.352 143.902C123.666 143.48 123.134 142.89 122.754 142.132C122.375 141.373 122.186 140.487 122.186 139.473C122.186 138.454 122.375 137.563 122.754 136.801C123.134 136.038 123.666 135.446 124.352 135.024C125.039 134.602 125.842 134.391 126.762 134.391C127.683 134.391 128.486 134.602 129.172 135.024C129.858 135.446 130.391 136.038 130.77 136.801C131.149 137.563 131.339 138.454 131.339 139.473C131.339 140.487 131.149 141.373 130.77 142.132C130.391 142.89 129.858 143.48 129.172 143.902C128.486 144.324 127.683 144.535 126.762 144.535ZM126.769 142.931C127.365 142.931 127.86 142.773 128.252 142.458C128.644 142.142 128.933 141.723 129.121 141.198C129.313 140.674 129.409 140.097 129.409 139.466C129.409 138.84 129.313 138.264 129.121 137.74C128.933 137.212 128.644 136.788 128.252 136.468C127.86 136.149 127.365 135.989 126.769 135.989C126.168 135.989 125.669 136.149 125.273 136.468C124.881 136.788 124.589 137.212 124.397 137.74C124.21 138.264 124.116 138.84 124.116 139.466C124.116 140.097 124.21 140.674 124.397 141.198C124.589 141.723 124.881 142.142 125.273 142.458C125.669 142.773 126.168 142.931 126.769 142.931ZM138.055 134.519V136.053H132.692V134.519H138.055ZM134.131 132.166H136.042V141.454C136.042 141.825 136.097 142.104 136.208 142.291C136.319 142.475 136.462 142.6 136.636 142.669C136.815 142.733 137.009 142.764 137.218 142.764C137.371 142.764 137.506 142.754 137.621 142.733C137.736 142.711 137.825 142.694 137.889 142.681L138.234 144.26C138.124 144.303 137.966 144.345 137.761 144.388C137.557 144.435 137.301 144.46 136.994 144.465C136.491 144.473 136.023 144.384 135.588 144.196C135.153 144.009 134.802 143.719 134.533 143.327C134.265 142.935 134.131 142.443 134.131 141.85V132.166ZM144.2 144.535C143.279 144.535 142.476 144.324 141.79 143.902C141.104 143.48 140.571 142.89 140.192 142.132C139.813 141.373 139.623 140.487 139.623 139.473C139.623 138.454 139.813 137.563 140.192 136.801C140.571 136.038 141.104 135.446 141.79 135.024C142.476 134.602 143.279 134.391 144.2 134.391C145.12 134.391 145.923 134.602 146.61 135.024C147.296 135.446 147.828 136.038 148.208 136.801C148.587 137.563 148.776 138.454 148.776 139.473C148.776 140.487 148.587 141.373 148.208 142.132C147.828 142.89 147.296 143.48 146.61 143.902C145.923 144.324 145.12 144.535 144.2 144.535ZM144.206 142.931C144.803 142.931 145.297 142.773 145.689 142.458C146.081 142.142 146.371 141.723 146.558 141.198C146.75 140.674 146.846 140.097 146.846 139.466C146.846 138.84 146.75 138.264 146.558 137.74C146.371 137.212 146.081 136.788 145.689 136.468C145.297 136.149 144.803 135.989 144.206 135.989C143.605 135.989 143.107 136.149 142.71 136.468C142.318 136.788 142.026 137.212 141.835 137.74C141.647 138.264 141.553 138.84 141.553 139.466C141.553 140.097 141.647 140.674 141.835 141.198C142.026 141.723 142.318 142.142 142.71 142.458C143.107 142.773 143.605 142.931 144.206 142.931ZM155.026 148.223C154.246 148.223 153.575 148.121 153.013 147.916C152.455 147.712 151.999 147.441 151.645 147.105C151.291 146.768 151.027 146.399 150.852 145.999L152.495 145.321C152.61 145.509 152.763 145.707 152.955 145.916C153.151 146.129 153.415 146.31 153.748 146.459C154.085 146.608 154.517 146.683 155.045 146.683C155.77 146.683 156.369 146.506 156.842 146.152C157.315 145.803 157.551 145.245 157.551 144.478V142.547H157.43C157.315 142.756 157.148 142.988 156.931 143.244C156.718 143.5 156.424 143.721 156.049 143.909C155.674 144.096 155.186 144.19 154.585 144.19C153.81 144.19 153.111 144.009 152.489 143.647C151.871 143.28 151.381 142.741 151.018 142.029C150.661 141.313 150.482 140.434 150.482 139.389C150.482 138.345 150.658 137.451 151.012 136.705C151.37 135.959 151.86 135.388 152.482 134.992C153.104 134.591 153.81 134.391 154.598 134.391C155.207 134.391 155.7 134.493 156.075 134.698C156.45 134.898 156.741 135.132 156.95 135.401C157.163 135.669 157.327 135.906 157.442 136.11H157.583V134.519H159.456V144.554C159.456 145.398 159.26 146.09 158.868 146.632C158.476 147.173 157.945 147.573 157.276 147.833C156.612 148.093 155.862 148.223 155.026 148.223ZM155.007 142.605C155.557 142.605 156.021 142.477 156.401 142.221C156.784 141.961 157.074 141.59 157.27 141.109C157.47 140.623 157.57 140.041 157.57 139.364C157.57 138.703 157.472 138.122 157.276 137.619C157.08 137.116 156.793 136.724 156.413 136.443C156.034 136.157 155.565 136.014 155.007 136.014C154.432 136.014 153.952 136.164 153.569 136.462C153.185 136.756 152.896 137.157 152.7 137.664C152.508 138.171 152.412 138.737 152.412 139.364C152.412 140.007 152.51 140.572 152.706 141.058C152.902 141.544 153.192 141.923 153.575 142.196C153.963 142.468 154.44 142.605 155.007 142.605ZM162.019 144.337V134.519H163.866V136.078H163.969C164.148 135.55 164.463 135.134 164.915 134.832C165.371 134.525 165.886 134.372 166.462 134.372C166.581 134.372 166.722 134.376 166.884 134.384C167.05 134.393 167.18 134.404 167.273 134.416V136.245C167.197 136.223 167.06 136.2 166.864 136.174C166.668 136.144 166.472 136.13 166.276 136.13C165.825 136.13 165.422 136.225 165.068 136.417C164.719 136.605 164.442 136.867 164.237 137.203C164.033 137.536 163.93 137.915 163.93 138.341V144.337H162.019ZM171.697 144.554C171.075 144.554 170.512 144.439 170.009 144.209C169.506 143.975 169.108 143.636 168.814 143.193C168.524 142.75 168.379 142.206 168.379 141.563C168.379 141.009 168.486 140.553 168.699 140.195C168.912 139.837 169.2 139.554 169.562 139.345C169.924 139.136 170.329 138.978 170.776 138.872C171.224 138.765 171.68 138.684 172.144 138.629C172.732 138.561 173.21 138.505 173.576 138.463C173.942 138.416 174.209 138.341 174.375 138.239C174.541 138.137 174.624 137.97 174.624 137.74V137.696C174.624 137.137 174.467 136.705 174.151 136.398C173.84 136.091 173.376 135.938 172.758 135.938C172.114 135.938 171.607 136.081 171.237 136.366C170.87 136.647 170.616 136.96 170.476 137.306L168.68 136.897C168.893 136.3 169.204 135.818 169.613 135.452C170.026 135.081 170.501 134.813 171.038 134.647C171.575 134.476 172.14 134.391 172.732 134.391C173.124 134.391 173.54 134.438 173.979 134.532C174.422 134.621 174.835 134.787 175.219 135.03C175.607 135.273 175.924 135.62 176.171 136.072C176.418 136.519 176.542 137.101 176.542 137.817V144.337H174.675V142.995H174.599C174.475 143.242 174.29 143.485 174.043 143.723C173.795 143.962 173.478 144.16 173.09 144.318C172.702 144.475 172.238 144.554 171.697 144.554ZM172.112 143.02C172.641 143.02 173.092 142.916 173.467 142.707C173.847 142.498 174.134 142.225 174.33 141.889C174.531 141.548 174.631 141.184 174.631 140.796V139.53C174.563 139.598 174.43 139.662 174.234 139.722C174.043 139.777 173.823 139.826 173.576 139.869C173.329 139.907 173.088 139.943 172.854 139.978C172.619 140.007 172.423 140.033 172.266 140.054C171.895 140.101 171.556 140.18 171.249 140.291C170.947 140.402 170.704 140.561 170.521 140.77C170.342 140.975 170.252 141.247 170.252 141.588C170.252 142.061 170.427 142.419 170.776 142.662C171.126 142.901 171.571 143.02 172.112 143.02ZM179.088 148.019V134.519H180.954V136.11H181.114C181.225 135.906 181.384 135.669 181.593 135.401C181.802 135.132 182.092 134.898 182.463 134.698C182.833 134.493 183.323 134.391 183.933 134.391C184.725 134.391 185.433 134.591 186.055 134.992C186.677 135.392 187.165 135.97 187.519 136.724C187.877 137.478 188.056 138.386 188.056 139.447C188.056 140.508 187.879 141.418 187.525 142.176C187.171 142.931 186.686 143.512 186.068 143.921C185.45 144.326 184.744 144.529 183.952 144.529C183.355 144.529 182.867 144.429 182.488 144.228C182.113 144.028 181.819 143.794 181.606 143.525C181.393 143.257 181.229 143.018 181.114 142.809H180.999V148.019H179.088ZM180.96 139.428C180.96 140.118 181.061 140.723 181.261 141.243C181.461 141.763 181.751 142.17 182.13 142.464C182.509 142.754 182.974 142.899 183.524 142.899C184.095 142.899 184.572 142.747 184.955 142.445C185.339 142.138 185.629 141.723 185.825 141.198C186.025 140.674 186.125 140.084 186.125 139.428C186.125 138.78 186.027 138.198 185.831 137.683C185.639 137.167 185.35 136.76 184.962 136.462C184.578 136.164 184.099 136.014 183.524 136.014C182.97 136.014 182.501 136.157 182.117 136.443C181.738 136.728 181.45 137.127 181.254 137.638C181.058 138.149 180.96 138.746 180.96 139.428ZM192.108 138.507V144.337H190.197V131.246H192.083V136.117H192.204C192.434 135.588 192.786 135.169 193.259 134.858C193.732 134.546 194.35 134.391 195.112 134.391C195.786 134.391 196.374 134.529 196.877 134.806C197.384 135.083 197.776 135.497 198.053 136.046C198.334 136.592 198.475 137.274 198.475 138.092V144.337H196.563V138.322C196.563 137.602 196.378 137.044 196.007 136.647C195.637 136.247 195.121 136.046 194.46 136.046C194.009 136.046 193.604 136.142 193.246 136.334C192.892 136.526 192.613 136.807 192.409 137.178C192.208 137.544 192.108 137.987 192.108 138.507ZM201.882 148.019C201.596 148.019 201.336 147.995 201.102 147.948C200.867 147.906 200.693 147.859 200.578 147.808L201.038 146.242C201.387 146.335 201.698 146.376 201.971 146.363C202.244 146.35 202.485 146.248 202.693 146.056C202.906 145.865 203.094 145.551 203.256 145.117L203.492 144.465L199.9 134.519H201.945L204.432 142.138H204.534L207.021 134.519H209.073L205.026 145.647C204.839 146.159 204.6 146.591 204.311 146.945C204.021 147.303 203.676 147.571 203.275 147.75C202.874 147.929 202.41 148.019 201.882 148.019Z" fill="#2B2B2B"/>
<path d="M49.6418 182.786V171.877H53.3279C54.1837 171.877 54.8833 172.031 55.4266 172.34C55.9735 172.645 56.3783 173.059 56.6411 173.581C56.9039 174.103 57.0353 174.686 57.0353 175.328C57.0353 175.971 56.9039 176.555 56.6411 177.081C56.3819 177.606 55.9806 178.025 55.4373 178.338C54.894 178.647 54.1979 178.801 53.3492 178.801H50.7072V177.629H53.3066C53.8925 177.629 54.3631 177.528 54.7182 177.326C55.0733 177.123 55.3307 176.85 55.4905 176.505C55.6539 176.157 55.7356 175.765 55.7356 175.328C55.7356 174.891 55.6539 174.501 55.4905 174.156C55.3307 173.812 55.0715 173.542 54.7128 173.347C54.3542 173.148 53.8783 173.048 53.2853 173.048H50.9628V182.786H49.6418ZM62.3167 182.956C61.5781 182.956 60.93 182.78 60.3725 182.429C59.8185 182.077 59.3853 181.585 59.0728 180.953C58.7638 180.321 58.6093 179.583 58.6093 178.737C58.6093 177.885 58.7638 177.141 59.0728 176.505C59.3853 175.87 59.8185 175.376 60.3725 175.025C60.93 174.673 61.5781 174.497 62.3167 174.497C63.0554 174.497 63.7017 174.673 64.2556 175.025C64.8132 175.376 65.2464 175.87 65.5554 176.505C65.8679 177.141 66.0241 177.885 66.0241 178.737C66.0241 179.583 65.8679 180.321 65.5554 180.953C65.2464 181.585 64.8132 182.077 64.2556 182.429C63.7017 182.78 63.0554 182.956 62.3167 182.956ZM62.3167 181.827C62.8778 181.827 63.3394 181.683 63.7017 181.395C64.0639 181.108 64.332 180.73 64.506 180.261C64.68 179.792 64.767 179.284 64.767 178.737C64.767 178.19 64.68 177.681 64.506 177.209C64.332 176.736 64.0639 176.355 63.7017 176.063C63.3394 175.772 62.8778 175.627 62.3167 175.627C61.7556 175.627 61.294 175.772 60.9318 176.063C60.5696 176.355 60.3014 176.736 60.1274 177.209C59.9534 177.681 59.8664 178.19 59.8664 178.737C59.8664 179.284 59.9534 179.792 60.1274 180.261C60.3014 180.73 60.5696 181.108 60.9318 181.395C61.294 181.683 61.7556 181.827 62.3167 181.827ZM67.943 182.786V174.604H69.1575V175.84H69.2428C69.3919 175.435 69.6618 175.106 70.0524 174.854C70.443 174.602 70.8834 174.476 71.3734 174.476C71.4658 174.476 71.5812 174.478 71.7197 174.481C71.8582 174.485 71.9629 174.49 72.034 174.497V175.776C71.9913 175.765 71.8937 175.749 71.741 175.728C71.5918 175.703 71.4338 175.69 71.2669 175.69C70.8692 175.69 70.5141 175.774 70.2016 175.941C69.8926 176.104 69.6476 176.331 69.4665 176.623C69.2889 176.91 69.2002 177.239 69.2002 177.608V182.786H67.943ZM77.0823 174.604V175.669H72.8423V174.604H77.0823ZM74.0781 172.644H75.3352V180.442C75.3352 180.797 75.3867 181.063 75.4897 181.241C75.5962 181.415 75.7311 181.532 75.8945 181.592C76.0614 181.649 76.2372 181.678 76.4218 181.678C76.5603 181.678 76.674 181.671 76.7627 181.656C76.8515 181.639 76.9225 181.624 76.9758 181.614L77.2315 182.743C77.1463 182.775 77.0273 182.807 76.8746 182.839C76.7219 182.874 76.5284 182.892 76.294 182.892C75.9389 182.892 75.5909 182.816 75.25 182.663C74.9126 182.51 74.6321 182.278 74.4083 181.965C74.1882 181.653 74.0781 181.259 74.0781 180.783V172.644ZM78.9733 182.786V174.604H80.1878V175.84H80.273C80.4222 175.435 80.6921 175.106 81.0827 174.854C81.4733 174.602 81.9137 174.476 82.4037 174.476C82.496 174.476 82.6115 174.478 82.75 174.481C82.8885 174.485 82.9932 174.49 83.0642 174.497V175.776C83.0216 175.765 82.924 175.749 82.7713 175.728C82.6221 175.703 82.4641 175.69 82.2972 175.69C81.8995 175.69 81.5443 175.774 81.2318 175.941C80.9229 176.104 80.6779 176.331 80.4968 176.623C80.3192 176.91 80.2304 177.239 80.2304 177.608V182.786H78.9733ZM86.962 182.977C86.4436 182.977 85.9731 182.88 85.5505 182.684C85.1279 182.486 84.7923 182.2 84.5437 181.827C84.2951 181.45 84.1709 180.996 84.1709 180.463C84.1709 179.994 84.2632 179.614 84.4478 179.323C84.6325 179.029 84.8793 178.798 85.1883 178.631C85.4972 178.464 85.8381 178.34 86.211 178.258C86.5874 178.173 86.9656 178.105 87.3456 178.056C87.8427 177.992 88.2458 177.944 88.5547 177.912C88.8672 177.876 89.0945 177.818 89.2366 177.736C89.3821 177.654 89.4549 177.512 89.4549 177.31V177.267C89.4549 176.742 89.3111 176.333 89.0235 176.042C88.7394 175.751 88.3079 175.605 87.7291 175.605C87.129 175.605 86.6584 175.737 86.3175 175.999C85.9766 176.262 85.7369 176.543 85.5984 176.841L84.4052 176.415C84.6183 175.918 84.9024 175.531 85.2575 175.254C85.6162 174.973 86.0068 174.778 86.4294 174.668C86.8555 174.554 87.2745 174.497 87.6865 174.497C87.9493 174.497 88.2511 174.529 88.592 174.593C88.9365 174.654 89.2685 174.78 89.5881 174.971C89.9113 175.163 90.1794 175.453 90.3924 175.84C90.6055 176.227 90.712 176.745 90.712 177.395V182.786H89.4549V181.678H89.391C89.3058 181.855 89.1638 182.045 88.9649 182.248C88.766 182.45 88.5015 182.622 88.1712 182.764C87.841 182.906 87.4379 182.977 86.962 182.977ZM87.1538 181.848C87.651 181.848 88.07 181.75 88.4109 181.555C88.7554 181.36 89.0146 181.108 89.1886 180.799C89.3662 180.49 89.4549 180.165 89.4549 179.824V178.673C89.4017 178.737 89.2845 178.796 89.1034 178.849C88.9258 178.899 88.7199 178.943 88.4855 178.982C88.2547 179.018 88.0292 179.05 87.809 179.078C87.5924 179.103 87.4166 179.124 87.2816 179.142C86.9549 179.185 86.6495 179.254 86.3655 179.35C86.0849 179.442 85.8576 179.583 85.6836 179.771C85.5132 179.955 85.428 180.208 85.428 180.527C85.428 180.964 85.5895 181.294 85.9127 181.518C86.2394 181.738 86.6531 181.848 87.1538 181.848ZM93.0065 182.786V174.604H94.2636V182.786H93.0065ZM93.6457 173.24C93.4007 173.24 93.1894 173.157 93.0119 172.99C92.8378 172.823 92.7508 172.622 92.7508 172.388C92.7508 172.154 92.8378 171.953 93.0119 171.786C93.1894 171.619 93.4007 171.536 93.6457 171.536C93.8908 171.536 94.1003 171.619 94.2743 171.786C94.4518 171.953 94.5406 172.154 94.5406 172.388C94.5406 172.622 94.4518 172.823 94.2743 172.99C94.1003 173.157 93.8908 173.24 93.6457 173.24ZM100.124 174.604V175.669H95.8843V174.604H100.124ZM97.1201 172.644H98.3772V180.442C98.3772 180.797 98.4287 181.063 98.5316 181.241C98.6382 181.415 98.7731 181.532 98.9365 181.592C99.1034 181.649 99.2792 181.678 99.4638 181.678C99.6023 181.678 99.716 181.671 99.8047 181.656C99.8935 181.639 99.9645 181.624 100.018 181.614L100.273 182.743C100.188 182.775 100.069 182.807 99.9166 182.839C99.7639 182.874 99.5704 182.892 99.336 182.892C98.9809 182.892 98.6329 182.816 98.2919 182.663C97.9546 182.51 97.6741 182.278 97.4503 181.965C97.2302 181.653 97.1201 181.259 97.1201 180.783V172.644ZM103.89 181.294L103.805 181.869C103.745 182.274 103.652 182.708 103.528 183.169C103.407 183.631 103.281 184.066 103.15 184.474C103.019 184.883 102.91 185.208 102.825 185.449H101.866C101.912 185.222 101.973 184.922 102.047 184.549C102.122 184.176 102.196 183.759 102.271 183.297C102.349 182.839 102.413 182.37 102.463 181.891L102.527 181.294H103.89ZM110.609 182.786V171.877H114.295C115.151 171.877 115.85 172.031 116.393 172.34C116.94 172.645 117.345 173.059 117.608 173.581C117.871 174.103 118.002 174.686 118.002 175.328C118.002 175.971 117.871 176.555 117.608 177.081C117.349 177.606 116.947 178.025 116.404 178.338C115.861 178.647 115.165 178.801 114.316 178.801H111.674V177.629H114.273C114.859 177.629 115.33 177.528 115.685 177.326C116.04 177.123 116.298 176.85 116.457 176.505C116.621 176.157 116.702 175.765 116.702 175.328C116.702 174.891 116.621 174.501 116.457 174.156C116.298 173.812 116.038 173.542 115.68 173.347C115.321 173.148 114.845 173.048 114.252 173.048H111.93V182.786H110.609ZM119.96 182.786V174.604H121.174V175.84H121.259C121.409 175.435 121.678 175.106 122.069 174.854C122.46 174.602 122.9 174.476 123.39 174.476C123.482 174.476 123.598 174.478 123.736 174.481C123.875 174.485 123.98 174.49 124.051 174.497V175.776C124.008 175.765 123.91 175.749 123.758 175.728C123.608 175.703 123.45 175.69 123.284 175.69C122.886 175.69 122.531 175.774 122.218 175.941C121.909 176.104 121.664 176.331 121.483 176.623C121.306 176.91 121.217 177.239 121.217 177.608V182.786H119.96ZM128.865 182.956C128.126 182.956 127.478 182.78 126.92 182.429C126.366 182.077 125.933 181.585 125.621 180.953C125.312 180.321 125.157 179.583 125.157 178.737C125.157 177.885 125.312 177.141 125.621 176.505C125.933 175.87 126.366 175.376 126.92 175.025C127.478 174.673 128.126 174.497 128.865 174.497C129.603 174.497 130.25 174.673 130.803 175.025C131.361 175.376 131.794 175.87 132.103 176.505C132.416 177.141 132.572 177.885 132.572 178.737C132.572 179.583 132.416 180.321 132.103 180.953C131.794 181.585 131.361 182.077 130.803 182.429C130.25 182.78 129.603 182.956 128.865 182.956ZM128.865 181.827C129.426 181.827 129.887 181.683 130.25 181.395C130.612 181.108 130.88 180.73 131.054 180.261C131.228 179.792 131.315 179.284 131.315 178.737C131.315 178.19 131.228 177.681 131.054 177.209C130.88 176.736 130.612 176.355 130.25 176.063C129.887 175.772 129.426 175.627 128.865 175.627C128.303 175.627 127.842 175.772 127.48 176.063C127.117 176.355 126.849 176.736 126.675 177.209C126.501 177.681 126.414 178.19 126.414 178.737C126.414 179.284 126.501 179.792 126.675 180.261C126.849 180.73 127.117 181.108 127.48 181.395C127.842 181.683 128.303 181.827 128.865 181.827ZM137.58 182.956C136.899 182.956 136.297 182.784 135.775 182.439C135.253 182.091 134.844 181.601 134.549 180.969C134.255 180.334 134.107 179.583 134.107 178.716C134.107 177.857 134.255 177.111 134.549 176.479C134.844 175.847 135.254 175.358 135.78 175.014C136.306 174.67 136.913 174.497 137.602 174.497C138.134 174.497 138.555 174.586 138.864 174.764C139.177 174.938 139.415 175.136 139.578 175.36C139.745 175.58 139.874 175.761 139.967 175.904H140.073V171.877H141.33V182.786H140.116V181.529H139.967C139.874 181.678 139.743 181.866 139.573 182.093C139.402 182.317 139.159 182.518 138.843 182.695C138.527 182.869 138.106 182.956 137.58 182.956ZM137.751 181.827C138.255 181.827 138.681 181.695 139.029 181.433C139.377 181.166 139.642 180.799 139.823 180.33C140.004 179.858 140.095 179.313 140.095 178.695C140.095 178.084 140.006 177.549 139.828 177.091C139.651 176.63 139.388 176.271 139.04 176.015C138.692 175.756 138.262 175.627 137.751 175.627C137.218 175.627 136.774 175.763 136.419 176.037C136.068 176.307 135.803 176.674 135.625 177.139C135.451 177.601 135.364 178.119 135.364 178.695C135.364 179.277 135.453 179.806 135.631 180.282C135.812 180.754 136.078 181.131 136.43 181.411C136.785 181.688 137.225 181.827 137.751 181.827ZM148.964 179.44V174.604H150.221V182.786H148.964V181.401H148.878C148.687 181.816 148.388 182.17 147.983 182.461C147.579 182.748 147.067 182.892 146.449 182.892C145.938 182.892 145.483 182.78 145.086 182.557C144.688 182.329 144.375 181.988 144.148 181.534C143.921 181.076 143.807 180.499 143.807 179.803V174.604H145.064V179.717C145.064 180.314 145.231 180.79 145.565 181.145C145.902 181.5 146.332 181.678 146.854 181.678C147.167 181.678 147.485 181.598 147.808 181.438C148.134 181.278 148.408 181.033 148.628 180.703C148.852 180.373 148.964 179.952 148.964 179.44ZM155.847 182.956C155.08 182.956 154.419 182.775 153.865 182.413C153.311 182.051 152.885 181.552 152.587 180.916C152.289 180.28 152.14 179.554 152.14 178.737C152.14 177.906 152.292 177.173 152.598 176.537C152.907 175.898 153.336 175.399 153.887 175.041C154.441 174.678 155.087 174.497 155.826 174.497C156.401 174.497 156.919 174.604 157.381 174.817C157.843 175.03 158.221 175.328 158.516 175.712C158.81 176.095 158.993 176.543 159.064 177.054H157.807C157.711 176.681 157.498 176.351 157.168 176.063C156.841 175.772 156.401 175.627 155.847 175.627C155.357 175.627 154.927 175.754 154.558 176.01C154.192 176.262 153.906 176.619 153.7 177.081C153.498 177.539 153.397 178.077 153.397 178.695C153.397 179.327 153.496 179.877 153.695 180.346C153.897 180.815 154.182 181.179 154.547 181.438C154.917 181.697 155.35 181.827 155.847 181.827C156.174 181.827 156.47 181.77 156.737 181.656C157.003 181.543 157.228 181.379 157.413 181.166C157.598 180.953 157.729 180.698 157.807 180.399H159.064C158.993 180.882 158.818 181.317 158.537 181.704C158.26 182.088 157.892 182.393 157.434 182.621C156.98 182.844 156.451 182.956 155.847 182.956ZM164.46 174.604V175.669H160.22V174.604H164.46ZM161.456 172.644H162.713V180.442C162.713 180.797 162.765 181.063 162.868 181.241C162.974 181.415 163.109 181.532 163.272 181.592C163.439 181.649 163.615 181.678 163.8 181.678C163.938 181.678 164.052 181.671 164.141 181.656C164.229 181.639 164.3 181.624 164.354 181.614L164.609 182.743C164.524 182.775 164.405 182.807 164.253 182.839C164.1 182.874 163.906 182.892 163.672 182.892C163.317 182.892 162.969 182.816 162.628 182.663C162.291 182.51 162.01 182.278 161.786 181.965C161.566 181.653 161.456 181.259 161.456 180.783V172.644ZM170.74 182.786V171.877H174.427C175.282 171.877 175.982 172.031 176.525 172.34C177.072 172.645 177.477 173.059 177.74 173.581C178.003 174.103 178.134 174.686 178.134 175.328C178.134 175.971 178.003 176.555 177.74 177.081C177.481 177.606 177.079 178.025 176.536 178.338C175.993 178.647 175.297 178.801 174.448 178.801H171.806V177.629H174.405C174.991 177.629 175.462 177.528 175.817 177.326C176.172 177.123 176.429 176.85 176.589 176.505C176.753 176.157 176.834 175.765 176.834 175.328C176.834 174.891 176.753 174.501 176.589 174.156C176.429 173.812 176.17 173.542 175.811 173.347C175.453 173.148 174.977 173.048 174.384 173.048H172.061V182.786H170.74ZM181.349 177.864V182.786H180.091V171.877H181.349V175.882H181.455C181.647 175.46 181.935 175.124 182.318 174.875C182.705 174.623 183.22 174.497 183.863 174.497C184.42 174.497 184.909 174.609 185.328 174.833C185.747 175.053 186.072 175.392 186.302 175.85C186.537 176.305 186.654 176.884 186.654 177.587V182.786H185.397V177.672C185.397 177.022 185.228 176.52 184.891 176.165C184.557 175.806 184.094 175.627 183.501 175.627C183.089 175.627 182.719 175.714 182.393 175.888C182.069 176.062 181.814 176.315 181.626 176.649C181.441 176.983 181.349 177.388 181.349 177.864ZM192.278 182.956C191.539 182.956 190.891 182.78 190.333 182.429C189.779 182.077 189.346 181.585 189.034 180.953C188.725 180.321 188.57 179.583 188.57 178.737C188.57 177.885 188.725 177.141 189.034 176.505C189.346 175.87 189.779 175.376 190.333 175.025C190.891 174.673 191.539 174.497 192.278 174.497C193.016 174.497 193.663 174.673 194.217 175.025C194.774 175.376 195.207 175.87 195.516 176.505C195.829 177.141 195.985 177.885 195.985 178.737C195.985 179.583 195.829 180.321 195.516 180.953C195.207 181.585 194.774 182.077 194.217 182.429C193.663 182.78 193.016 182.956 192.278 182.956ZM192.278 181.827C192.839 181.827 193.3 181.683 193.663 181.395C194.025 181.108 194.293 180.73 194.467 180.261C194.641 179.792 194.728 179.284 194.728 178.737C194.728 178.19 194.641 177.681 194.467 177.209C194.293 176.736 194.025 176.355 193.663 176.063C193.3 175.772 192.839 175.627 192.278 175.627C191.717 175.627 191.255 175.772 190.893 176.063C190.53 176.355 190.262 176.736 190.088 177.209C189.914 177.681 189.827 178.19 189.827 178.737C189.827 179.284 189.914 179.792 190.088 180.261C190.262 180.73 190.53 181.108 190.893 181.395C191.255 181.683 191.717 181.827 192.278 181.827ZM201.462 174.604V175.669H197.222V174.604H201.462ZM198.458 172.644H199.715V180.442C199.715 180.797 199.767 181.063 199.87 181.241C199.976 181.415 200.111 181.532 200.274 181.592C200.441 181.649 200.617 181.678 200.802 181.678C200.94 181.678 201.054 181.671 201.143 181.656C201.231 181.639 201.302 181.624 201.356 181.614L201.611 182.743C201.526 182.775 201.407 182.807 201.254 182.839C201.102 182.874 200.908 182.892 200.674 182.892C200.319 182.892 199.971 182.816 199.63 182.663C199.292 182.51 199.012 182.278 198.788 181.965C198.568 181.653 198.458 181.259 198.458 180.783V172.644ZM206.677 182.956C205.938 182.956 205.29 182.78 204.733 182.429C204.179 182.077 203.746 181.585 203.433 180.953C203.124 180.321 202.97 179.583 202.97 178.737C202.97 177.885 203.124 177.141 203.433 176.505C203.746 175.87 204.179 175.376 204.733 175.025C205.29 174.673 205.938 174.497 206.677 174.497C207.416 174.497 208.062 174.673 208.616 175.025C209.174 175.376 209.607 175.87 209.916 176.505C210.228 177.141 210.384 177.885 210.384 178.737C210.384 179.583 210.228 180.321 209.916 180.953C209.607 181.585 209.174 182.077 208.616 182.429C208.062 182.78 207.416 182.956 206.677 182.956ZM206.677 181.827C207.238 181.827 207.7 181.683 208.062 181.395C208.424 181.108 208.692 180.73 208.866 180.261C209.04 179.792 209.127 179.284 209.127 178.737C209.127 178.19 209.04 177.681 208.866 177.209C208.692 176.736 208.424 176.355 208.062 176.063C207.7 175.772 207.238 175.627 206.677 175.627C206.116 175.627 205.654 175.772 205.292 176.063C204.93 176.355 204.662 176.736 204.488 177.209C204.314 177.681 204.227 178.19 204.227 178.737C204.227 179.284 204.314 179.792 204.488 180.261C204.662 180.73 204.93 181.108 205.292 181.395C205.654 181.683 206.116 181.827 206.677 181.827ZM215.606 186.024C214.999 186.024 214.477 185.946 214.04 185.79C213.603 185.637 213.239 185.435 212.948 185.183C212.66 184.934 212.431 184.668 212.261 184.384L213.262 183.681C213.376 183.83 213.52 184 213.694 184.192C213.868 184.387 214.106 184.556 214.407 184.698C214.713 184.844 215.112 184.916 215.606 184.916C216.266 184.916 216.812 184.757 217.241 184.437C217.671 184.117 217.886 183.617 217.886 182.935V181.273H217.779C217.687 181.422 217.556 181.607 217.385 181.827C217.218 182.043 216.977 182.237 216.661 182.407C216.348 182.574 215.926 182.658 215.393 182.658C214.732 182.658 214.139 182.502 213.614 182.189C213.092 181.877 212.678 181.422 212.373 180.825C212.071 180.229 211.92 179.504 211.92 178.652C211.92 177.814 212.067 177.084 212.362 176.463C212.657 175.838 213.067 175.355 213.592 175.014C214.118 174.67 214.725 174.497 215.414 174.497C215.947 174.497 216.369 174.586 216.682 174.764C216.998 174.938 217.239 175.136 217.406 175.36C217.577 175.58 217.708 175.761 217.801 175.904H217.928V174.604H219.143V183.02C219.143 183.723 218.983 184.295 218.663 184.735C218.347 185.179 217.921 185.504 217.385 185.71C216.852 185.92 216.259 186.024 215.606 186.024ZM215.563 181.529C216.068 181.529 216.494 181.413 216.842 181.182C217.19 180.951 217.454 180.619 217.635 180.186C217.817 179.753 217.907 179.235 217.907 178.631C217.907 178.041 217.818 177.521 217.641 177.07C217.463 176.619 217.2 176.266 216.852 176.01C216.504 175.754 216.075 175.627 215.563 175.627C215.031 175.627 214.587 175.761 214.232 176.031C213.88 176.301 213.616 176.663 213.438 177.118C213.264 177.573 213.177 178.077 213.177 178.631C213.177 179.199 213.266 179.701 213.443 180.138C213.624 180.572 213.891 180.912 214.242 181.161C214.597 181.406 215.038 181.529 215.563 181.529ZM221.444 182.786V174.604H222.659V175.84H222.744C222.893 175.435 223.163 175.106 223.553 174.854C223.944 174.602 224.384 174.476 224.874 174.476C224.967 174.476 225.082 174.478 225.221 174.481C225.359 174.485 225.464 174.49 225.535 174.497V175.776C225.492 175.765 225.395 175.749 225.242 175.728C225.093 175.703 224.935 175.69 224.768 175.69C224.37 175.69 224.015 175.774 223.703 175.941C223.394 176.104 223.149 176.331 222.967 176.623C222.79 176.91 222.701 177.239 222.701 177.608V182.786H221.444ZM229.433 182.977C228.914 182.977 228.444 182.88 228.021 182.684C227.599 182.486 227.263 182.2 227.014 181.827C226.766 181.45 226.642 180.996 226.642 180.463C226.642 179.994 226.734 179.614 226.919 179.323C227.103 179.029 227.35 178.798 227.659 178.631C227.968 178.464 228.309 178.34 228.682 178.258C229.058 178.173 229.436 178.105 229.816 178.056C230.313 177.992 230.716 177.944 231.025 177.912C231.338 177.876 231.565 177.818 231.707 177.736C231.853 177.654 231.926 177.512 231.926 177.31V177.267C231.926 176.742 231.782 176.333 231.494 176.042C231.21 175.751 230.779 175.605 230.2 175.605C229.6 175.605 229.129 175.737 228.788 175.999C228.447 176.262 228.208 176.543 228.069 176.841L226.876 176.415C227.089 175.918 227.373 175.531 227.728 175.254C228.087 174.973 228.477 174.778 228.9 174.668C229.326 174.554 229.745 174.497 230.157 174.497C230.42 174.497 230.722 174.529 231.063 174.593C231.407 174.654 231.739 174.78 232.059 174.971C232.382 175.163 232.65 175.453 232.863 175.84C233.076 176.227 233.183 176.745 233.183 177.395V182.786H231.926V181.678H231.862C231.777 181.855 231.634 182.045 231.436 182.248C231.237 182.45 230.972 182.622 230.642 182.764C230.312 182.906 229.909 182.977 229.433 182.977ZM229.625 181.848C230.122 181.848 230.541 181.75 230.882 181.555C231.226 181.36 231.485 181.108 231.659 180.799C231.837 180.49 231.926 180.165 231.926 179.824V178.673C231.872 178.737 231.755 178.796 231.574 178.849C231.397 178.899 231.191 178.943 230.956 178.982C230.725 179.018 230.5 179.05 230.28 179.078C230.063 179.103 229.887 179.124 229.752 179.142C229.426 179.185 229.12 179.254 228.836 179.35C228.556 179.442 228.328 179.583 228.154 179.771C227.984 179.955 227.899 180.208 227.899 180.527C227.899 180.964 228.06 181.294 228.383 181.518C228.71 181.738 229.124 181.848 229.625 181.848ZM235.477 185.854V174.604H236.692V175.904H236.841C236.933 175.761 237.061 175.58 237.224 175.36C237.391 175.136 237.629 174.938 237.938 174.764C238.251 174.586 238.673 174.497 239.206 174.497C239.895 174.497 240.502 174.67 241.028 175.014C241.553 175.358 241.963 175.847 242.258 176.479C242.553 177.111 242.7 177.857 242.7 178.716C242.7 179.583 242.553 180.334 242.258 180.969C241.963 181.601 241.555 182.091 241.033 182.439C240.511 182.784 239.909 182.956 239.227 182.956C238.702 182.956 238.281 182.869 237.965 182.695C237.649 182.518 237.405 182.317 237.235 182.093C237.065 181.866 236.933 181.678 236.841 181.529H236.734V185.854H235.477ZM236.713 178.695C236.713 179.313 236.804 179.858 236.985 180.33C237.166 180.799 237.43 181.166 237.778 181.433C238.126 181.695 238.553 181.827 239.057 181.827C239.582 181.827 240.021 181.688 240.372 181.411C240.728 181.131 240.994 180.754 241.171 180.282C241.353 179.806 241.443 179.277 241.443 178.695C241.443 178.119 241.354 177.601 241.177 177.139C241.003 176.674 240.738 176.307 240.383 176.037C240.032 175.763 239.589 175.627 239.057 175.627C238.545 175.627 238.116 175.756 237.768 176.015C237.42 176.271 237.157 176.63 236.979 177.091C236.802 177.549 236.713 178.084 236.713 178.695ZM245.875 177.864V182.786H244.618V171.877H245.875V175.882H245.981C246.173 175.46 246.461 175.124 246.844 174.875C247.231 174.623 247.746 174.497 248.389 174.497C248.947 174.497 249.435 174.609 249.854 174.833C250.273 175.053 250.598 175.392 250.829 175.85C251.063 176.305 251.18 176.884 251.18 177.587V182.786H249.923V177.672C249.923 177.022 249.755 176.52 249.417 176.165C249.083 175.806 248.62 175.627 248.027 175.627C247.615 175.627 247.246 175.714 246.919 175.888C246.596 176.062 246.34 176.315 246.152 176.649C245.967 176.983 245.875 177.388 245.875 177.864ZM254.29 185.854C254.077 185.854 253.887 185.836 253.72 185.801C253.553 185.769 253.438 185.737 253.374 185.705L253.693 184.597C253.999 184.675 254.269 184.703 254.503 184.682C254.737 184.661 254.945 184.556 255.126 184.368C255.311 184.183 255.479 183.883 255.632 183.467L255.867 182.828L252.841 174.604H254.205L256.463 181.124H256.548L258.807 174.604H260.17L256.697 183.979C256.541 184.401 256.348 184.751 256.117 185.028C255.886 185.309 255.618 185.516 255.313 185.651C255.011 185.786 254.67 185.854 254.29 185.854Z" fill="#767676"/>
<defs>
<clipPath id="clip0_2_637">
<rect width="78" height="76.925" fill="white" transform="translate(116 24.7563)"/>
</clipPath>
</defs>
</svg>
