<svg width="86" height="21" viewBox="0 0 86 21" fill="none" xmlns="http://www.w3.org/2000/svg">
<path d="M7.76953 10.1143V10.5186C7.76953 11.167 7.68164 11.749 7.50586 12.2646C7.33008 12.7803 7.08203 13.2197 6.76172 13.583C6.44141 13.9424 6.05859 14.2178 5.61328 14.4092C5.17188 14.6006 4.68164 14.6963 4.14258 14.6963C3.60742 14.6963 3.11719 14.6006 2.67188 14.4092C2.23047 14.2178 1.84766 13.9424 1.52344 13.583C1.19922 13.2197 0.947266 12.7803 0.767578 12.2646C0.591797 11.749 0.503906 11.167 0.503906 10.5186V10.1143C0.503906 9.46191 0.591797 8.87988 0.767578 8.36816C0.943359 7.85254 1.19141 7.41309 1.51172 7.0498C1.83594 6.68652 2.21875 6.40918 2.66016 6.21777C3.10547 6.02637 3.5957 5.93066 4.13086 5.93066C4.66992 5.93066 5.16016 6.02637 5.60156 6.21777C6.04688 6.40918 6.42969 6.68652 6.75 7.0498C7.07422 7.41309 7.32422 7.85254 7.5 8.36816C7.67969 8.87988 7.76953 9.46191 7.76953 10.1143ZM5.99414 10.5186V10.1025C5.99414 9.64941 5.95312 9.25098 5.87109 8.90723C5.78906 8.56348 5.66797 8.27441 5.50781 8.04004C5.34766 7.80566 5.15234 7.62988 4.92188 7.5127C4.69141 7.3916 4.42773 7.33105 4.13086 7.33105C3.83398 7.33105 3.57031 7.3916 3.33984 7.5127C3.11328 7.62988 2.91992 7.80566 2.75977 8.04004C2.60352 8.27441 2.48438 8.56348 2.40234 8.90723C2.32031 9.25098 2.2793 9.64941 2.2793 10.1025V10.5186C2.2793 10.9678 2.32031 11.3662 2.40234 11.7139C2.48438 12.0576 2.60547 12.3486 2.76562 12.5869C2.92578 12.8213 3.12109 12.999 3.35156 13.1201C3.58203 13.2412 3.8457 13.3018 4.14258 13.3018C4.43945 13.3018 4.70312 13.2412 4.93359 13.1201C5.16406 12.999 5.35742 12.8213 5.51367 12.5869C5.66992 12.3486 5.78906 12.0576 5.87109 11.7139C5.95312 11.3662 5.99414 10.9678 5.99414 10.5186ZM9.03516 6.04785H12.2168C12.8691 6.04785 13.4297 6.14551 13.8984 6.34082C14.3711 6.53613 14.7344 6.8252 14.9883 7.20801C15.2422 7.59082 15.3691 8.06152 15.3691 8.62012C15.3691 9.07715 15.291 9.46973 15.1348 9.79785C14.9824 10.1221 14.7656 10.3936 14.4844 10.6123C14.207 10.8271 13.8809 10.999 13.5059 11.1279L12.9492 11.4209H10.1836L10.1719 10.0498H12.2285C12.5371 10.0498 12.793 9.99512 12.9961 9.88574C13.1992 9.77637 13.3516 9.62402 13.4531 9.42871C13.5586 9.2334 13.6113 9.00684 13.6113 8.74902C13.6113 8.47559 13.5605 8.23926 13.459 8.04004C13.3574 7.84082 13.2031 7.68848 12.9961 7.58301C12.7891 7.47754 12.5293 7.4248 12.2168 7.4248H10.793V14.5791H9.03516V6.04785ZM13.8047 14.5791L11.8594 10.7764L13.7168 10.7646L15.6855 14.4971V14.5791H13.8047ZM19.3418 14.5791H17.4844L17.4961 13.208H19.3418C19.8027 13.208 20.1914 13.1045 20.5078 12.8975C20.8242 12.6865 21.0625 12.3799 21.2227 11.9775C21.3867 11.5752 21.4688 11.0889 21.4688 10.5186V10.1025C21.4688 9.66504 21.4219 9.28027 21.3281 8.94824C21.2383 8.61621 21.1035 8.33691 20.9238 8.11035C20.7441 7.88379 20.5234 7.71387 20.2617 7.60059C20 7.4834 19.6992 7.4248 19.3594 7.4248H17.4492V6.04785H19.3594C19.9297 6.04785 20.4512 6.14551 20.9238 6.34082C21.4004 6.53223 21.8125 6.80762 22.1602 7.16699C22.5078 7.52637 22.7754 7.95605 22.9629 8.45605C23.1543 8.95215 23.25 9.50488 23.25 10.1143V10.5186C23.25 11.124 23.1543 11.6768 22.9629 12.1768C22.7754 12.6768 22.5078 13.1064 22.1602 13.4658C21.8164 13.8213 21.4043 14.0967 20.9238 14.292C20.4473 14.4834 19.9199 14.5791 19.3418 14.5791ZM18.4805 6.04785V14.5791H16.7227V6.04785H18.4805ZM30.252 13.208V14.5791H25.7109V13.208H30.252ZM26.2852 6.04785V14.5791H24.5273V6.04785H26.2852ZM29.6602 9.52246V10.8584H25.7109V9.52246H29.6602ZM30.2461 6.04785V7.4248H25.7109V6.04785H30.2461ZM31.2773 6.04785H34.459C35.1113 6.04785 35.6719 6.14551 36.1406 6.34082C36.6133 6.53613 36.9766 6.8252 37.2305 7.20801C37.4844 7.59082 37.6113 8.06152 37.6113 8.62012C37.6113 9.07715 37.5332 9.46973 37.377 9.79785C37.2246 10.1221 37.0078 10.3936 36.7266 10.6123C36.4492 10.8271 36.123 10.999 35.748 11.1279L35.1914 11.4209H32.4258L32.4141 10.0498H34.4707C34.7793 10.0498 35.0352 9.99512 35.2383 9.88574C35.4414 9.77637 35.5938 9.62402 35.6953 9.42871C35.8008 9.2334 35.8535 9.00684 35.8535 8.74902C35.8535 8.47559 35.8027 8.23926 35.7012 8.04004C35.5996 7.84082 35.4453 7.68848 35.2383 7.58301C35.0312 7.47754 34.7715 7.4248 34.459 7.4248H33.0352V14.5791H31.2773V6.04785ZM36.0469 14.5791L34.1016 10.7764L35.959 10.7646L37.9277 14.4971V14.5791H36.0469ZM48.8965 6.04785V14.5791H47.1387L43.7109 8.86035V14.5791H41.9531V6.04785H43.7109L47.1445 11.7725V6.04785H48.8965ZM57.4336 10.1143V10.5186C57.4336 11.167 57.3457 11.749 57.1699 12.2646C56.9941 12.7803 56.7461 13.2197 56.4258 13.583C56.1055 13.9424 55.7227 14.2178 55.2773 14.4092C54.8359 14.6006 54.3457 14.6963 53.8066 14.6963C53.2715 14.6963 52.7812 14.6006 52.3359 14.4092C51.8945 14.2178 51.5117 13.9424 51.1875 13.583C50.8633 13.2197 50.6113 12.7803 50.4316 12.2646C50.2559 11.749 50.168 11.167 50.168 10.5186V10.1143C50.168 9.46191 50.2559 8.87988 50.4316 8.36816C50.6074 7.85254 50.8555 7.41309 51.1758 7.0498C51.5 6.68652 51.8828 6.40918 52.3242 6.21777C52.7695 6.02637 53.2598 5.93066 53.7949 5.93066C54.334 5.93066 54.8242 6.02637 55.2656 6.21777C55.7109 6.40918 56.0938 6.68652 56.4141 7.0498C56.7383 7.41309 56.9883 7.85254 57.1641 8.36816C57.3438 8.87988 57.4336 9.46191 57.4336 10.1143ZM55.6582 10.5186V10.1025C55.6582 9.64941 55.6172 9.25098 55.5352 8.90723C55.4531 8.56348 55.332 8.27441 55.1719 8.04004C55.0117 7.80566 54.8164 7.62988 54.5859 7.5127C54.3555 7.3916 54.0918 7.33105 53.7949 7.33105C53.498 7.33105 53.2344 7.3916 53.0039 7.5127C52.7773 7.62988 52.584 7.80566 52.4238 8.04004C52.2676 8.27441 52.1484 8.56348 52.0664 8.90723C51.9844 9.25098 51.9434 9.64941 51.9434 10.1025V10.5186C51.9434 10.9678 51.9844 11.3662 52.0664 11.7139C52.1484 12.0576 52.2695 12.3486 52.4297 12.5869C52.5898 12.8213 52.7852 12.999 53.0156 13.1201C53.2461 13.2412 53.5098 13.3018 53.8066 13.3018C54.1035 13.3018 54.3672 13.2412 54.5977 13.1201C54.8281 12.999 55.0215 12.8213 55.1777 12.5869C55.334 12.3486 55.4531 12.0576 55.5352 11.7139C55.6172 11.3662 55.6582 10.9678 55.6582 10.5186ZM60.7559 13.2256L62.4551 6.04785H63.4043L63.6211 7.24316L61.8105 14.5791H60.791L60.7559 13.2256ZM59.8828 6.04785L61.2891 13.2256L61.1719 14.5791H60.0352L58.1426 6.04785H59.8828ZM65.1152 13.1963L66.5039 6.04785H68.2441L66.3574 14.5791H65.2207L65.1152 13.1963ZM63.9375 6.04785L65.6484 13.2549L65.6016 14.5791H64.582L62.7598 7.2373L62.9941 6.04785H63.9375Z" fill="#FFB400"/>
<g clip-path="url(#clip0_2_647)">
<path d="M76.1431 10.4822L73.7856 8.15803L74.964 6.99512L78.4998 10.4822L74.964 13.9693L73.7856 12.8064L76.1431 10.4822Z" fill="#FFB400"/>
</g>
<defs>
<clipPath id="clip0_2_647">
<rect width="20" height="19.7243" fill="white" transform="translate(66 0.620117)"/>
</clipPath>
</defs>
</svg>
